<?xml version="1.0" encoding="UTF-8"?>
<svg width="100px" height="100px" viewBox="0 0 100 100" version="1.1" xmlns="http://www.w3.org/2000/svg" xmlns:xlink="http://www.w3.org/1999/xlink">
    <!-- Generator: Sketch 50.2 (55047) - http://www.bohemiancoding.com/sketch -->
    <title>icon/deploy</title>
    <desc>Created with Sketch.</desc>
    <defs>
        <polygon id="path-1" points="0 100 100 100 100 0 0 0"></polygon>
    </defs>
    <g id="icon/deploy" stroke="none" stroke-width="1" fill="none" fill-rule="evenodd">
        <g>
            <polygon id="Fill-1" fill="#231F20" points="49.0196078 87.254902 50.9803922 87.254902 50.9803922 69.6078431 49.0196078 69.6078431"></polygon>
            <polygon id="Fill-2" fill="#231F20" points="12.745098 50.9803922 30.3921569 50.9803922 30.3921569 49.0196078 12.745098 49.0196078"></polygon>
            <g id="Group-18">
                <path d="M6.8627451,45.0980392 C4.15882353,45.0980392 1.96078431,47.2960784 1.96078431,50 C1.96078431,52.7039216 4.15882353,54.9019608 6.8627451,54.9019608 C9.56666667,54.9019608 11.7647059,52.7039216 11.7647059,50 C11.7647059,47.2960784 9.56666667,45.0980392 6.8627451,45.0980392 M6.8627451,56.8627451 C3.07843137,56.8627451 0,53.7843137 0,50 C0,46.2156863 3.07843137,43.1372549 6.8627451,43.1372549 C10.6470588,43.1372549 13.7254902,46.2156863 13.7254902,50 C13.7254902,53.7843137 10.6470588,56.8627451 6.8627451,56.8627451" id="Fill-3" fill="#004BFF"></path>
                <mask id="mask-2" fill="white">
                    <use xlink:href="#path-1"></use>
                </mask>
                <g id="Clip-6"></g>
                <polygon id="Fill-5" fill="#231F20" mask="url(#mask-2)" points="69.6078431 50.9803922 87.254902 50.9803922 87.254902 49.0196078 69.6078431 49.0196078"></polygon>
                <path d="M50,88.2352941 C47.2960784,88.2352941 45.0980392,90.4333333 45.0980392,93.1372549 C45.0980392,95.8411765 47.2960784,98.0392157 50,98.0392157 C52.7039216,98.0392157 54.9019608,95.8411765 54.9019608,93.1372549 C54.9019608,90.4333333 52.7039216,88.2352941 50,88.2352941 M50,100 C46.2156863,100 43.1372549,96.9215686 43.1372549,93.1372549 C43.1372549,89.3529412 46.2156863,86.2745098 50,86.2745098 C53.7843137,86.2745098 56.8627451,89.3529412 56.8627451,93.1372549 C56.8627451,96.9215686 53.7843137,100 50,100" id="Fill-7" fill="#004BFF" mask="url(#mask-2)"></path>
                <polygon id="Fill-8" fill="#004BFF" mask="url(#mask-2)" points="25.2029412 76.1833333 23.8166667 74.7970588 74.7970588 23.8166667 76.1833333 25.2029412"></polygon>
                <polygon id="Fill-9" fill="#004BFF" mask="url(#mask-2)" points="74.7970588 76.1833333 23.8166667 25.2029412 25.2029412 23.8166667 76.1833333 74.7970588"></polygon>
                <path d="M50,31.372549 C39.7294118,31.372549 31.372549,39.7294118 31.372549,50 C31.372549,60.2705882 39.7294118,68.627451 50,68.627451 C60.2705882,68.627451 68.627451,60.2705882 68.627451,50 C68.627451,39.7294118 60.2705882,31.372549 50,31.372549 M50,70.5882353 C38.6470588,70.5882353 29.4117647,61.3529412 29.4117647,50 C29.4117647,38.6470588 38.6470588,29.4117647 50,29.4117647 C61.3529412,29.4117647 70.5882353,38.6470588 70.5882353,50 C70.5882353,61.3529412 61.3529412,70.5882353 50,70.5882353" id="Fill-10" fill="#231F20" mask="url(#mask-2)"></path>
                <path d="M93.1372549,45.0980392 C90.4333333,45.0980392 88.2352941,47.2960784 88.2352941,50 C88.2352941,52.7039216 90.4333333,54.9019608 93.1372549,54.9019608 C95.8411765,54.9019608 98.0392157,52.7039216 98.0392157,50 C98.0392157,47.2960784 95.8411765,45.0980392 93.1372549,45.0980392 M93.1372549,56.8627451 C89.3529412,56.8627451 86.2745098,53.7843137 86.2745098,50 C86.2745098,46.2156863 89.3529412,43.1372549 93.1372549,43.1372549 C96.9215686,43.1372549 100,46.2156863 100,50 C100,53.7843137 96.9215686,56.8627451 93.1372549,56.8627451" id="Fill-11" fill="#004BFF" mask="url(#mask-2)"></path>
                <path d="M20.5882353,74.5098039 C17.8843137,74.5098039 15.6862745,76.7078431 15.6862745,79.4117647 C15.6862745,82.1156863 17.8843137,84.3137255 20.5882353,84.3137255 C23.2921569,84.3137255 25.4901961,82.1156863 25.4901961,79.4117647 C25.4901961,76.7078431 23.2921569,74.5098039 20.5882353,74.5098039 M20.5882353,86.2745098 C16.8039216,86.2745098 13.7254902,83.1960784 13.7254902,79.4117647 C13.7254902,75.627451 16.8039216,72.5490196 20.5882353,72.5490196 C24.372549,72.5490196 27.4509804,75.627451 27.4509804,79.4117647 C27.4509804,83.1960784 24.372549,86.2745098 20.5882353,86.2745098" id="Fill-12" fill="#231F20" mask="url(#mask-2)"></path>
                <path d="M79.4117647,15.6862745 C76.7078431,15.6862745 74.5098039,17.8843137 74.5098039,20.5882353 C74.5098039,23.2921569 76.7078431,25.4901961 79.4117647,25.4901961 C82.1156863,25.4901961 84.3137255,23.2921569 84.3137255,20.5882353 C84.3137255,17.8843137 82.1156863,15.6862745 79.4117647,15.6862745 M79.4117647,27.4509804 C75.627451,27.4509804 72.5490196,24.372549 72.5490196,20.5882353 C72.5490196,16.8039216 75.627451,13.7254902 79.4117647,13.7254902 C83.1960784,13.7254902 86.2745098,16.8039216 86.2745098,20.5882353 C86.2745098,24.372549 83.1960784,27.4509804 79.4117647,27.4509804" id="Fill-13" fill="#231F20" mask="url(#mask-2)"></path>
                <path d="M79.4117647,74.5098039 C76.7078431,74.5098039 74.5098039,76.7078431 74.5098039,79.4117647 C74.5098039,82.1156863 76.7078431,84.3137255 79.4117647,84.3137255 C82.1156863,84.3137255 84.3137255,82.1156863 84.3137255,79.4117647 C84.3137255,76.7078431 82.1156863,74.5098039 79.4117647,74.5098039 M79.4117647,86.2745098 C75.627451,86.2745098 72.5490196,83.1960784 72.5490196,79.4117647 C72.5490196,75.627451 75.627451,72.5490196 79.4117647,72.5490196 C83.1960784,72.5490196 86.2745098,75.627451 86.2745098,79.4117647 C86.2745098,83.1960784 83.1960784,86.2745098 79.4117647,86.2745098" id="Fill-14" fill="#231F20" mask="url(#mask-2)"></path>
                <path d="M20.5882353,15.6862745 C17.8843137,15.6862745 15.6862745,17.8843137 15.6862745,20.5882353 C15.6862745,23.2921569 17.8843137,25.4901961 20.5882353,25.4901961 C23.2921569,25.4901961 25.4901961,23.2921569 25.4901961,20.5882353 C25.4901961,17.8843137 23.2921569,15.6862745 20.5882353,15.6862745 M20.5882353,27.4509804 C16.8039216,27.4509804 13.7254902,24.372549 13.7254902,20.5882353 C13.7254902,16.8039216 16.8039216,13.7254902 20.5882353,13.7254902 C24.372549,13.7254902 27.4509804,16.8039216 27.4509804,20.5882353 C27.4509804,24.372549 24.372549,27.4509804 20.5882353,27.4509804" id="Fill-15" fill="#231F20" mask="url(#mask-2)"></path>
                <polygon id="Fill-16" fill="#231F20" mask="url(#mask-2)" points="49.0196078 30.3921569 50.9803922 30.3921569 50.9803922 12.745098 49.0196078 12.745098"></polygon>
                <path d="M50,1.96078431 C47.2960784,1.96078431 45.0980392,4.15882353 45.0980392,6.8627451 C45.0980392,9.56666667 47.2960784,11.7647059 50,11.7647059 C52.7039216,11.7647059 54.9019608,9.56666667 54.9019608,6.8627451 C54.9019608,4.15882353 52.7039216,1.96078431 50,1.96078431 M50,13.7254902 C46.2156863,13.7254902 43.1372549,10.6470588 43.1372549,6.8627451 C43.1372549,3.07843137 46.2156863,0 50,0 C53.7843137,0 56.8627451,3.07843137 56.8627451,6.8627451 C56.8627451,10.6470588 53.7843137,13.7254902 50,13.7254902" id="Fill-17" fill="#004BFF" mask="url(#mask-2)"></path>
            </g>
        </g>
    </g>
</svg>