<?xml version="1.0" encoding="UTF-8"?>
<svg width="100px" height="100px" viewBox="0 0 100 100" version="1.1" xmlns="http://www.w3.org/2000/svg" xmlns:xlink="http://www.w3.org/1999/xlink">
    <!-- Generator: Sketch 50.2 (55047) - http://www.bohemiancoding.com/sketch -->
    <title>icon/micro-services</title>
    <desc>Created with Sketch.</desc>
    <defs>
        <polygon id="path-1" points="0 100 100 100 100 0 0 0"></polygon>
    </defs>
    <g id="icon/micro-services" stroke="none" stroke-width="1" fill="none" fill-rule="evenodd">
        <g>
            <path d="M50,31.372549 C39.7294118,31.372549 31.372549,39.7294118 31.372549,50 C31.372549,60.2705882 39.7294118,68.627451 50,68.627451 C60.2705882,68.627451 68.627451,60.2705882 68.627451,50 C68.627451,39.7294118 60.2705882,31.372549 50,31.372549 M50,70.5882353 C38.6470588,70.5882353 29.4117647,61.3529412 29.4117647,50 C29.4117647,38.6470588 38.6470588,29.4117647 50,29.4117647 C61.3529412,29.4117647 70.5882353,38.6470588 70.5882353,50 C70.5882353,61.3529412 61.3529412,70.5882353 50,70.5882353" id="Fill-1" fill="#231F20"></path>
            <path d="M50,23.5294118 C35.4039216,23.5294118 23.5294118,35.4039216 23.5294118,50 C23.5294118,64.5960784 35.4039216,76.4705882 50,76.4705882 C64.5960784,76.4705882 76.4705882,64.5960784 76.4705882,50 C76.4705882,35.4039216 64.5960784,23.5294118 50,23.5294118 M50,78.4313725 C34.3235294,78.4313725 21.5686275,65.6764706 21.5686275,50 C21.5686275,34.3235294 34.3235294,21.5686275 50,21.5686275 C65.6764706,21.5686275 78.4313725,34.3235294 78.4313725,50 C78.4313725,65.6764706 65.6764706,78.4313725 50,78.4313725" id="Fill-3" fill="#004BFF"></path>
            <path d="M6.8627451,88.2352941 C4.15882353,88.2352941 1.96078431,90.4333333 1.96078431,93.1372549 C1.96078431,95.8411765 4.15882353,98.0392157 6.8627451,98.0392157 C9.56666667,98.0392157 11.7647059,95.8411765 11.7647059,93.1372549 C11.7647059,90.4333333 9.56666667,88.2352941 6.8627451,88.2352941 M6.8627451,100 C3.07843137,100 0,96.9215686 0,93.1372549 C0,89.3529412 3.07843137,86.2745098 6.8627451,86.2745098 C10.6470588,86.2745098 13.7254902,89.3529412 13.7254902,93.1372549 C13.7254902,96.9215686 10.6470588,100 6.8627451,100" id="Fill-5" fill="#231F20"></path>
            <path d="M6.8627451,1.96078431 C4.15882353,1.96078431 1.96078431,4.15882353 1.96078431,6.8627451 C1.96078431,9.56666667 4.15882353,11.7647059 6.8627451,11.7647059 C9.56666667,11.7647059 11.7647059,9.56666667 11.7647059,6.8627451 C11.7647059,4.15882353 9.56666667,1.96078431 6.8627451,1.96078431 M6.8627451,13.7254902 C3.07843137,13.7254902 0,10.6470588 0,6.8627451 C0,3.07843137 3.07843137,0 6.8627451,0 C10.6470588,0 13.7254902,3.07843137 13.7254902,6.8627451 C13.7254902,10.6470588 10.6470588,13.7254902 6.8627451,13.7254902" id="Fill-7" fill="#231F20"></path>
            <mask id="mask-2" fill="white">
                <use xlink:href="#path-1"></use>
            </mask>
            <g id="Clip-10"></g>
            <polygon id="Fill-9" fill="#231F20" mask="url(#mask-2)" points="12.7470588 7.84901961 44.1176471 7.84901961 44.1176471 5.88823529 12.7470588 5.88823529"></polygon>
            <polygon id="Fill-11" fill="#231F20" mask="url(#mask-2)" points="55.8823529 7.84901961 87.2529412 7.84901961 87.2529412 5.88823529 55.8823529 5.88823529"></polygon>
            <path d="M93.1372549,88.2352941 C90.4333333,88.2352941 88.2352941,90.4333333 88.2352941,93.1372549 C88.2352941,95.8411765 90.4333333,98.0392157 93.1372549,98.0392157 C95.8411765,98.0392157 98.0392157,95.8411765 98.0392157,93.1372549 C98.0392157,90.4333333 95.8411765,88.2352941 93.1372549,88.2352941 M93.1372549,100 C89.3529412,100 86.2745098,96.9215686 86.2745098,93.1372549 C86.2745098,89.3529412 89.3529412,86.2745098 93.1372549,86.2745098 C96.9215686,86.2745098 100,89.3529412 100,93.1372549 C100,96.9215686 96.9215686,100 93.1372549,100" id="Fill-12" fill="#231F20" mask="url(#mask-2)"></path>
            <path d="M93.1372549,1.96078431 C90.4333333,1.96078431 88.2352941,4.15882353 88.2352941,6.8627451 C88.2352941,9.56666667 90.4333333,11.7647059 93.1372549,11.7647059 C95.8411765,11.7647059 98.0392157,9.56666667 98.0392157,6.8627451 C98.0392157,4.15882353 95.8411765,1.96078431 93.1372549,1.96078431 M93.1372549,13.7254902 C89.3529412,13.7254902 86.2745098,10.6470588 86.2745098,6.8627451 C86.2745098,3.07843137 89.3529412,0 93.1372549,0 C96.9215686,0 100,3.07843137 100,6.8627451 C100,10.6470588 96.9215686,13.7254902 93.1372549,13.7254902" id="Fill-13" fill="#231F20" mask="url(#mask-2)"></path>
            <path d="M50,45.0980392 C47.2960784,45.0980392 45.0980392,47.2960784 45.0980392,50 C45.0980392,52.7039216 47.2960784,54.9019608 50,54.9019608 C52.7039216,54.9019608 54.9019608,52.7039216 54.9019608,50 C54.9019608,47.2960784 52.7039216,45.0980392 50,45.0980392 M50,56.8627451 C46.2156863,56.8627451 43.1372549,53.7843137 43.1372549,50 C43.1372549,46.2156863 46.2156863,43.1372549 50,43.1372549 C53.7843137,43.1372549 56.8627451,46.2156863 56.8627451,50 C56.8627451,53.7843137 53.7843137,56.8627451 50,56.8627451" id="Fill-14" fill="#004BFF" mask="url(#mask-2)"></path>
            <path d="M50,1.96078431 C47.2960784,1.96078431 45.0980392,4.15882353 45.0980392,6.8627451 C45.0980392,9.56666667 47.2960784,11.7647059 50,11.7647059 C52.7039216,11.7647059 54.9019608,9.56666667 54.9019608,6.8627451 C54.9019608,4.15882353 52.7039216,1.96078431 50,1.96078431 M50,13.7254902 C46.2156863,13.7254902 43.1372549,10.6470588 43.1372549,6.8627451 C43.1372549,3.07843137 46.2156863,0 50,0 C53.7843137,0 56.8627451,3.07843137 56.8627451,6.8627451 C56.8627451,10.6470588 53.7843137,13.7254902 50,13.7254902" id="Fill-15" fill="#004BFF" mask="url(#mask-2)"></path>
            <polygon id="Fill-16" fill="#231F20" mask="url(#mask-2)" points="12.7470588 94.1235294 44.1176471 94.1235294 44.1176471 92.1627451 12.7470588 92.1627451"></polygon>
            <polygon id="Fill-17" fill="#231F20" mask="url(#mask-2)" points="55.8823529 94.1235294 87.2529412 94.1235294 87.2529412 92.1627451 55.8823529 92.1627451"></polygon>
            <path d="M50,88.2352941 C47.2960784,88.2352941 45.0980392,90.4333333 45.0980392,93.1372549 C45.0980392,95.8411765 47.2960784,98.0392157 50,98.0392157 C52.7039216,98.0392157 54.9019608,95.8411765 54.9019608,93.1372549 C54.9019608,90.4333333 52.7039216,88.2352941 50,88.2352941 M50,100 C46.2156863,100 43.1372549,96.9215686 43.1372549,93.1372549 C43.1372549,89.3529412 46.2156863,86.2745098 50,86.2745098 C53.7843137,86.2745098 56.8627451,89.3529412 56.8627451,93.1372549 C56.8627451,96.9215686 53.7843137,100 50,100" id="Fill-18" fill="#004BFF" mask="url(#mask-2)"></path>
            <polygon id="Fill-19" fill="#231F20" mask="url(#mask-2)" points="5.88823529 87.2529412 7.84901961 87.2529412 7.84901961 55.8823529 5.88823529 55.8823529"></polygon>
            <polygon id="Fill-20" fill="#231F20" mask="url(#mask-2)" points="5.88823529 44.1176471 7.84901961 44.1176471 7.84901961 12.7470588 5.88823529 12.7470588"></polygon>
            <polygon id="Fill-21" fill="#231F20" mask="url(#mask-2)" points="92.1627451 87.2529412 94.1235294 87.2529412 94.1235294 55.8823529 92.1627451 55.8823529"></polygon>
            <polygon id="Fill-22" fill="#231F20" mask="url(#mask-2)" points="92.1627451 44.1176471 94.1235294 44.1176471 94.1235294 12.7470588 92.1627451 12.7470588"></polygon>
            <polygon id="Fill-23" fill="#231F20" mask="url(#mask-2)" points="12.7470588 50.9803922 30.3921569 50.9803922 30.3921569 49.0196078 12.7470588 49.0196078"></polygon>
            <polygon id="Fill-24" fill="#231F20" mask="url(#mask-2)" points="69.6078431 50.9803922 87.2529412 50.9803922 87.2529412 49.0196078 69.6078431 49.0196078"></polygon>
            <path d="M6.8627451,45.0980392 C4.15882353,45.0980392 1.96078431,47.2960784 1.96078431,50 C1.96078431,52.7039216 4.15882353,54.9019608 6.8627451,54.9019608 C9.56666667,54.9019608 11.7647059,52.7039216 11.7647059,50 C11.7647059,47.2960784 9.56666667,45.0980392 6.8627451,45.0980392 M6.8627451,56.8627451 C3.07843137,56.8627451 0,53.7843137 0,50 C0,46.2156863 3.07843137,43.1372549 6.8627451,43.1372549 C10.6470588,43.1372549 13.7254902,46.2156863 13.7254902,50 C13.7254902,53.7843137 10.6470588,56.8627451 6.8627451,56.8627451" id="Fill-25" fill="#004BFF" mask="url(#mask-2)"></path>
            <path d="M93.1372549,45.0980392 C90.4333333,45.0980392 88.2352941,47.2960784 88.2352941,50 C88.2352941,52.7039216 90.4333333,54.9019608 93.1372549,54.9019608 C95.8411765,54.9019608 98.0392157,52.7039216 98.0392157,50 C98.0392157,47.2960784 95.8411765,45.0980392 93.1372549,45.0980392 M93.1372549,56.8627451 C89.3529412,56.8627451 86.2745098,53.7843137 86.2745098,50 C86.2745098,46.2156863 89.3529412,43.1372549 93.1372549,43.1372549 C96.9215686,43.1372549 100,46.2156863 100,50 C100,53.7843137 96.9215686,56.8627451 93.1372549,56.8627451" id="Fill-26" fill="#004BFF" mask="url(#mask-2)"></path>
        </g>
    </g>
</svg>