<?xml version="1.0" encoding="UTF-8"?>
<svg width="100px" height="100px" viewBox="0 0 100 100" version="1.1" xmlns="http://www.w3.org/2000/svg" xmlns:xlink="http://www.w3.org/1999/xlink">
    <!-- Generator: Sketch 50.2 (55047) - http://www.bohemiancoding.com/sketch -->
    <title>icon/build-cloud</title>
    <desc>Created with Sketch.</desc>
    <defs>
        <polygon id="path-1" points="0 100 100 100 100 0 0 0"></polygon>
    </defs>
    <g id="icon/build-cloud" stroke="none" stroke-width="1" fill="none" fill-rule="evenodd">
        <g>
            <polygon id="Fill-1" fill="#004BFF" points="12.745098 50.9803922 87.254902 50.9803922 87.254902 49.0196078 12.745098 49.0196078"></polygon>
            <g id="Group-26">
                <path d="M6.8627451,45.0980392 C4.15882353,45.0980392 1.96078431,47.2960784 1.96078431,50 C1.96078431,52.7039216 4.15882353,54.9019608 6.8627451,54.9019608 C9.56666667,54.9019608 11.7647059,52.7039216 11.7647059,50 C11.7647059,47.2960784 9.56666667,45.0980392 6.8627451,45.0980392 M6.8627451,56.8627451 C3.07843137,56.8627451 0,53.7843137 0,50 C0,46.2156863 3.07843137,43.1372549 6.8627451,43.1372549 C10.6470588,43.1372549 13.7254902,46.2156863 13.7254902,50 C13.7254902,53.7843137 10.6470588,56.8627451 6.8627451,56.8627451" id="Fill-2" fill="#231F20"></path>
                <path d="M28.4313725,66.6666667 C25.727451,66.6666667 23.5294118,68.8647059 23.5294118,71.5686275 C23.5294118,74.272549 25.727451,76.4705882 28.4313725,76.4705882 C31.1352941,76.4705882 33.3333333,74.272549 33.3333333,71.5686275 C33.3333333,68.8647059 31.1352941,66.6666667 28.4313725,66.6666667 M28.4313725,78.4313725 C24.6470588,78.4313725 21.5686275,75.3529412 21.5686275,71.5686275 C21.5686275,67.7843137 24.6470588,64.7058824 28.4313725,64.7058824 C32.2156863,64.7058824 35.2941176,67.7843137 35.2941176,71.5686275 C35.2941176,75.3529412 32.2156863,78.4313725 28.4313725,78.4313725" id="Fill-4" fill="#231F20"></path>
                <path d="M71.5686275,66.6666667 C68.8647059,66.6666667 66.6666667,68.8647059 66.6666667,71.5686275 C66.6666667,74.272549 68.8647059,76.4705882 71.5686275,76.4705882 C74.272549,76.4705882 76.4705882,74.272549 76.4705882,71.5686275 C76.4705882,68.8647059 74.272549,66.6666667 71.5686275,66.6666667 M71.5686275,78.4313725 C67.7843137,78.4313725 64.7058824,75.3529412 64.7058824,71.5686275 C64.7058824,67.7843137 67.7843137,64.7058824 71.5686275,64.7058824 C75.3529412,64.7058824 78.4313725,67.7843137 78.4313725,71.5686275 C78.4313725,75.3529412 75.3529412,78.4313725 71.5686275,78.4313725" id="Fill-6" fill="#231F20"></path>
                <path d="M93.1372549,45.0980392 C90.4333333,45.0980392 88.2352941,47.2960784 88.2352941,50 C88.2352941,52.7039216 90.4333333,54.9019608 93.1372549,54.9019608 C95.8411765,54.9019608 98.0392157,52.7039216 98.0392157,50 C98.0392157,47.2960784 95.8411765,45.0980392 93.1372549,45.0980392 M93.1372549,56.8627451 C89.3529412,56.8627451 86.2745098,53.7843137 86.2745098,50 C86.2745098,46.2156863 89.3529412,43.1372549 93.1372549,43.1372549 C96.9215686,43.1372549 100,46.2156863 100,50 C100,53.7843137 96.9215686,56.8627451 93.1372549,56.8627451" id="Fill-8" fill="#231F20"></path>
                <path d="M50,88.2352941 C47.2960784,88.2352941 45.0980392,90.4333333 45.0980392,93.1372549 C45.0980392,95.8411765 47.2960784,98.0392157 50,98.0392157 C52.7039216,98.0392157 54.9019608,95.8411765 54.9019608,93.1372549 C54.9019608,90.4333333 52.7039216,88.2352941 50,88.2352941 M50,100 C46.2156863,100 43.1372549,96.9215686 43.1372549,93.1372549 C43.1372549,89.3529412 46.2156863,86.2745098 50,86.2745098 C53.7843137,86.2745098 56.8627451,89.3529412 56.8627451,93.1372549 C56.8627451,96.9215686 53.7843137,100 50,100" id="Fill-10" fill="#231F20"></path>
                <mask id="mask-2" fill="white">
                    <use xlink:href="#path-1"></use>
                </mask>
                <g id="Clip-13"></g>
                <polygon id="Fill-12" fill="#231F20" mask="url(#mask-2)" points="5.88235294 87.254902 7.84313725 87.254902 7.84313725 55.8823529 5.88235294 55.8823529"></polygon>
                <polygon id="Fill-14" fill="#231F20" mask="url(#mask-2)" points="12.745098 94.1176471 44.1176471 94.1176471 44.1176471 92.1568627 12.745098 92.1568627"></polygon>
                <polygon id="Fill-15" fill="#231F20" mask="url(#mask-2)" points="55.8823529 94.1176471 87.254902 94.1176471 87.254902 92.1568627 55.8823529 92.1568627"></polygon>
                <polygon id="Fill-16" fill="#231F20" mask="url(#mask-2)" points="92.1568627 87.254902 94.1176471 87.254902 94.1176471 55.8823529 92.1568627 55.8823529"></polygon>
                <polygon id="Fill-17" fill="#231F20" mask="url(#mask-2)" points="27.4509804 65.6862745 29.4117647 65.6862745 29.4117647 12.745098 27.4509804 12.745098"></polygon>
                <polygon id="Fill-18" fill="#231F20" mask="url(#mask-2)" points="70.5882353 65.6862745 72.5490196 65.6862745 72.5490196 12.745098 70.5882353 12.745098"></polygon>
                <polygon id="Fill-19" fill="#231F20" mask="url(#mask-2)" points="34.3137255 7.84313725 65.6862745 7.84313725 65.6862745 5.88235294 34.3137255 5.88235294"></polygon>
                <polygon id="Fill-20" fill="#231F20" mask="url(#mask-2)" points="49.0196078 87.254902 50.9803922 87.254902 50.9803922 34.3137255 49.0196078 34.3137255"></polygon>
                <path d="M50,23.5294118 C47.2960784,23.5294118 45.0980392,25.727451 45.0980392,28.4313725 C45.0980392,31.1352941 47.2960784,33.3333333 50,33.3333333 C52.7039216,33.3333333 54.9019608,31.1352941 54.9019608,28.4313725 C54.9019608,25.727451 52.7039216,23.5294118 50,23.5294118 M50,35.2941176 C46.2156863,35.2941176 43.1372549,32.2156863 43.1372549,28.4313725 C43.1372549,24.6470588 46.2156863,21.5686275 50,21.5686275 C53.7843137,21.5686275 56.8627451,24.6470588 56.8627451,28.4313725 C56.8627451,32.2156863 53.7843137,35.2941176 50,35.2941176" id="Fill-21" fill="#004BFF" mask="url(#mask-2)"></path>
                <path d="M28.4313725,1.96078431 C25.727451,1.96078431 23.5294118,4.15882353 23.5294118,6.8627451 C23.5294118,9.56666667 25.727451,11.7647059 28.4313725,11.7647059 C31.1352941,11.7647059 33.3333333,9.56666667 33.3333333,6.8627451 C33.3333333,4.15882353 31.1352941,1.96078431 28.4313725,1.96078431 M28.4313725,13.7254902 C24.6470588,13.7254902 21.5686275,10.6470588 21.5686275,6.8627451 C21.5686275,3.07843137 24.6470588,0 28.4313725,0 C32.2156863,0 35.2941176,3.07843137 35.2941176,6.8627451 C35.2941176,10.6470588 32.2156863,13.7254902 28.4313725,13.7254902" id="Fill-22" fill="#004BFF" mask="url(#mask-2)"></path>
                <path d="M71.5686275,1.96078431 C68.8647059,1.96078431 66.6666667,4.15882353 66.6666667,6.8627451 C66.6666667,9.56666667 68.8647059,11.7647059 71.5686275,11.7647059 C74.272549,11.7647059 76.4705882,9.56666667 76.4705882,6.8627451 C76.4705882,4.15882353 74.272549,1.96078431 71.5686275,1.96078431 M71.5686275,13.7254902 C67.7843137,13.7254902 64.7058824,10.6470588 64.7058824,6.8627451 C64.7058824,3.07843137 67.7843137,0 71.5686275,0 C75.3529412,0 78.4313725,3.07843137 78.4313725,6.8627451 C78.4313725,10.6470588 75.3529412,13.7254902 71.5686275,13.7254902" id="Fill-23" fill="#004BFF" mask="url(#mask-2)"></path>
                <path d="M6.8627451,88.2352941 C4.15882353,88.2352941 1.96078431,90.4333333 1.96078431,93.1372549 C1.96078431,95.8411765 4.15882353,98.0392157 6.8627451,98.0392157 C9.56666667,98.0392157 11.7647059,95.8411765 11.7647059,93.1372549 C11.7647059,90.4333333 9.56666667,88.2352941 6.8627451,88.2352941 M6.8627451,100 C3.07843137,100 0,96.9215686 0,93.1372549 C0,89.3529412 3.07843137,86.2745098 6.8627451,86.2745098 C10.6470588,86.2745098 13.7254902,89.3529412 13.7254902,93.1372549 C13.7254902,96.9215686 10.6470588,100 6.8627451,100" id="Fill-24" fill="#004BFF" mask="url(#mask-2)"></path>
                <path d="M93.1372549,88.2352941 C90.4333333,88.2352941 88.2352941,90.4333333 88.2352941,93.1372549 C88.2352941,95.8411765 90.4333333,98.0392157 93.1372549,98.0392157 C95.8411765,98.0392157 98.0392157,95.8411765 98.0392157,93.1372549 C98.0392157,90.4333333 95.8411765,88.2352941 93.1372549,88.2352941 M93.1372549,100 C89.3529412,100 86.2745098,96.9215686 86.2745098,93.1372549 C86.2745098,89.3529412 89.3529412,86.2745098 93.1372549,86.2745098 C96.9215686,86.2745098 100,89.3529412 100,93.1372549 C100,96.9215686 96.9215686,100 93.1372549,100" id="Fill-25" fill="#004BFF" mask="url(#mask-2)"></path>
            </g>
        </g>
    </g>
</svg>