<?xml version="1.0" encoding="UTF-8"?>
<svg width="101px" height="100px" viewBox="0 0 101 100" version="1.1" xmlns="http://www.w3.org/2000/svg" xmlns:xlink="http://www.w3.org/1999/xlink">
    <!-- Generator: Sketch 50.2 (55047) - http://www.bohemiancoding.com/sketch -->
    <title>icon/monitor</title>
    <desc>Created with Sketch.</desc>
    <defs>
        <polygon id="path-1" points="0 100 100.811765 100 100.811765 0 0 0"></polygon>
    </defs>
    <g id="icon/monitor" stroke="none" stroke-width="1" fill="none" fill-rule="evenodd">
        <g>
            <polygon id="Fill-1" fill="#004BFF" points="20.0137255 73.5294118 21.9745098 73.5294118 21.9745098 26.4705882 20.0137255 26.4705882"></polygon>
            <polygon id="Fill-2" fill="#004BFF" points="78.8372549 73.5294118 80.8 73.5294118 80.8 26.4705882 78.8372549 26.4705882"></polygon>
            <g id="Group-18">
                <path d="M50.4058824,31.372549 C40.1352941,31.372549 31.7784314,39.7294118 31.7784314,50 C31.7784314,60.2705882 40.1352941,68.627451 50.4058824,68.627451 C60.6764706,68.627451 69.0333333,60.2705882 69.0333333,50 C69.0333333,39.7294118 60.6764706,31.372549 50.4058824,31.372549 M50.4058824,70.5882353 C39.0529412,70.5882353 29.8176471,61.3529412 29.8176471,50 C29.8176471,38.6470588 39.0529412,29.4117647 50.4058824,29.4117647 C61.7588235,29.4117647 70.9941176,38.6470588 70.9941176,50 C70.9941176,61.3529412 61.7588235,70.5882353 50.4058824,70.5882353" id="Fill-3" fill="#231F20"></path>
                <path d="M50.4058824,1.96078431 C47.7019608,1.96078431 45.5039216,4.15882353 45.5039216,6.8627451 C45.5039216,9.56666667 47.7019608,11.7647059 50.4058824,11.7647059 C53.1098039,11.7647059 55.3078431,9.56666667 55.3078431,6.8627451 C55.3078431,4.15882353 53.1098039,1.96078431 50.4058824,1.96078431 M50.4058824,13.7254902 C46.6215686,13.7254902 43.5431373,10.6470588 43.5431373,6.8627451 C43.5431373,3.07843137 46.6215686,0 50.4058824,0 C54.1901961,0 57.2686275,3.07843137 57.2686275,6.8627451 C57.2686275,10.6470588 54.1901961,13.7254902 50.4058824,13.7254902" id="Fill-5" fill="#231F20"></path>
                <path d="M50.4058824,88.2352941 C47.7019608,88.2352941 45.5039216,90.4333333 45.5039216,93.1372549 C45.5039216,95.8411765 47.7019608,98.0392157 50.4058824,98.0392157 C53.1098039,98.0392157 55.3078431,95.8411765 55.3078431,93.1372549 C55.3078431,90.4333333 53.1098039,88.2352941 50.4058824,88.2352941 M50.4058824,100 C46.6215686,100 43.5431373,96.9215686 43.5431373,93.1372549 C43.5431373,89.3529412 46.6215686,86.2745098 50.4058824,86.2745098 C54.1901961,86.2745098 57.2686275,89.3529412 57.2686275,93.1372549 C57.2686275,96.9215686 54.1901961,100 50.4058824,100" id="Fill-7" fill="#231F20"></path>
                <mask id="mask-2" fill="white">
                    <use xlink:href="#path-1"></use>
                </mask>
                <g id="Clip-10"></g>
                <polygon id="Fill-9" fill="#231F20" mask="url(#mask-2)" points="49.4254902 44.1176471 51.3862745 44.1176471 51.3862745 12.745098 49.4254902 12.745098"></polygon>
                <polygon id="Fill-11" fill="#231F20" mask="url(#mask-2)" points="49.4254902 87.254902 51.3862745 87.254902 51.3862745 55.8823529 49.4254902 55.8823529"></polygon>
                <path d="M50.4058824,45.0980392 C47.7019608,45.0980392 45.5039216,47.2960784 45.5039216,50 C45.5039216,52.7039216 47.7019608,54.9019608 50.4058824,54.9019608 C53.1098039,54.9019608 55.3078431,52.7039216 55.3078431,50 C55.3078431,47.2960784 53.1098039,45.0980392 50.4058824,45.0980392 M50.4058824,56.8627451 C46.6215686,56.8627451 43.5431373,53.7843137 43.5431373,50 C43.5431373,46.2156863 46.6215686,43.1372549 50.4058824,43.1372549 C54.1901961,43.1372549 57.2686275,46.2156863 57.2686275,50 C57.2686275,53.7843137 54.1901961,56.8627451 50.4058824,56.8627451" id="Fill-12" fill="#004BFF" mask="url(#mask-2)"></path>
                <path d="M79.8176471,74.5098039 C77.1137255,74.5098039 74.9156863,76.7078431 74.9156863,79.4117647 C74.9156863,82.1156863 77.1137255,84.3137255 79.8176471,84.3137255 C82.5215686,84.3137255 84.7196078,82.1156863 84.7196078,79.4117647 C84.7196078,76.7078431 82.5215686,74.5098039 79.8176471,74.5098039 M79.8176471,86.2745098 C76.0333333,86.2745098 72.954902,83.1960784 72.954902,79.4117647 C72.954902,75.627451 76.0333333,72.5490196 79.8176471,72.5490196 C83.6019608,72.5490196 86.6803922,75.627451 86.6803922,79.4117647 C86.6803922,83.1960784 83.6019608,86.2745098 79.8176471,86.2745098" id="Fill-13" fill="#004BFF" mask="url(#mask-2)"></path>
                <path d="M20.9941176,74.5098039 C18.2901961,74.5098039 16.0921569,76.7078431 16.0921569,79.4117647 C16.0921569,82.1156863 18.2901961,84.3137255 20.9941176,84.3137255 C23.6980392,84.3137255 25.8960784,82.1156863 25.8960784,79.4117647 C25.8960784,76.7078431 23.6980392,74.5098039 20.9941176,74.5098039 M20.9941176,86.2745098 C17.2098039,86.2745098 14.1313725,83.1960784 14.1313725,79.4117647 C14.1313725,75.627451 17.2098039,72.5490196 20.9941176,72.5490196 C24.7784314,72.5490196 27.8568627,75.627451 27.8568627,79.4117647 C27.8568627,83.1960784 24.7784314,86.2745098 20.9941176,86.2745098" id="Fill-14" fill="#004BFF" mask="url(#mask-2)"></path>
                <path d="M79.8176471,15.6862745 C77.1137255,15.6862745 74.9156863,17.8843137 74.9156863,20.5882353 C74.9156863,23.2921569 77.1137255,25.4901961 79.8176471,25.4901961 C82.5215686,25.4901961 84.7196078,23.2921569 84.7196078,20.5882353 C84.7196078,17.8843137 82.5215686,15.6862745 79.8176471,15.6862745 M79.8176471,27.4509804 C76.0333333,27.4509804 72.954902,24.372549 72.954902,20.5882353 C72.954902,16.8039216 76.0333333,13.7254902 79.8176471,13.7254902 C83.6019608,13.7254902 86.6803922,16.8039216 86.6803922,20.5882353 C86.6803922,24.372549 83.6019608,27.4509804 79.8176471,27.4509804" id="Fill-15" fill="#004BFF" mask="url(#mask-2)"></path>
                <path d="M20.9941176,15.6862745 C18.2901961,15.6862745 16.0921569,17.8843137 16.0921569,20.5882353 C16.0921569,23.2921569 18.2901961,25.4901961 20.9941176,25.4901961 C23.6980392,25.4901961 25.8960784,23.2921569 25.8960784,20.5882353 C25.8960784,17.8843137 23.6980392,15.6862745 20.9941176,15.6862745 M20.9941176,27.4509804 C17.2098039,27.4509804 14.1313725,24.372549 14.1313725,20.5882353 C14.1313725,16.8039216 17.2098039,13.7254902 20.9941176,13.7254902 C24.7784314,13.7254902 27.8568627,16.8039216 27.8568627,20.5882353 C27.8568627,24.372549 24.7784314,27.4509804 20.9941176,27.4509804" id="Fill-16" fill="#004BFF" mask="url(#mask-2)"></path>
                <path d="M2.82254902,50 C6.64803922,53.4568627 24.8990196,68.627451 50.4068627,68.627451 C75.9127451,68.627451 94.1637255,53.4568627 97.9892157,50 C94.1637255,46.5431373 75.9127451,31.372549 50.4068627,31.372549 C24.8990196,31.372549 6.64803922,46.5431373 2.82254902,50 M50.4068627,70.5882353 C20.9284314,70.5882353 0.893137255,50.8921569 0.693137255,50.6941176 L0.000980392157,50 L0.693137255,49.3058824 C0.893137255,49.1078431 20.9284314,29.4117647 50.4068627,29.4117647 C79.8833333,29.4117647 99.9205882,49.1078431 100.118627,49.3058824 L100.812745,50 L100.118627,50.6941176 C99.9205882,50.8921569 79.8833333,70.5882353 50.4068627,70.5882353" id="Fill-17" fill="#231F20" mask="url(#mask-2)"></path>
            </g>
        </g>
    </g>
</svg>