<?xml version="1.0" encoding="UTF-8"?>
<svg width="100px" height="100px" viewBox="0 0 100 100" version="1.1" xmlns="http://www.w3.org/2000/svg" xmlns:xlink="http://www.w3.org/1999/xlink">
    <!-- Generator: Sketch 50.2 (55047) - http://www.bohemiancoding.com/sketch -->
    <title>icon/build-buy</title>
    <desc>Created with Sketch.</desc>
    <defs>
        <polygon id="path-1" points="0 100 100 100 100 0 0 0"></polygon>
    </defs>
    <g id="icon/build-buy" stroke="none" stroke-width="1" fill="none" fill-rule="evenodd">
        <g>
            <polygon id="Fill-1" fill="#004BFF" points="20.5882353 31.372549 79.4117647 31.372549 79.4117647 29.4117647 20.5882353 29.4117647"></polygon>
            <polygon id="Fill-2" fill="#004BFF" points="20.5882353 11.7647059 79.4117647 11.7647059 79.4117647 9.80392157 20.5882353 9.80392157"></polygon>
            <polygon id="Fill-3" fill="#231F20" points="12.745098 50.9803922 87.254902 50.9803922 87.254902 49.0196078 12.745098 49.0196078"></polygon>
            <g id="Group-19">
                <path d="M6.8627451,45.0980392 C4.15882353,45.0980392 1.96078431,47.2960784 1.96078431,50 C1.96078431,52.7039216 4.15882353,54.9019608 6.8627451,54.9019608 C9.56666667,54.9019608 11.7647059,52.7039216 11.7647059,50 C11.7647059,47.2960784 9.56666667,45.0980392 6.8627451,45.0980392 M6.8627451,56.8627451 C3.07843137,56.8627451 0,53.7843137 0,50 C0,46.2156863 3.07843137,43.1372549 6.8627451,43.1372549 C10.6470588,43.1372549 13.7254902,46.2156863 13.7254902,50 C13.7254902,53.7843137 10.6470588,56.8627451 6.8627451,56.8627451" id="Fill-4" fill="#004BFF"></path>
                <path d="M93.1372549,45.0980392 C90.4333333,45.0980392 88.2352941,47.2960784 88.2352941,50 C88.2352941,52.7039216 90.4333333,54.9019608 93.1372549,54.9019608 C95.8411765,54.9019608 98.0392157,52.7039216 98.0392157,50 C98.0392157,47.2960784 95.8411765,45.0980392 93.1372549,45.0980392 M93.1372549,56.8627451 C89.3529412,56.8627451 86.2745098,53.7843137 86.2745098,50 C86.2745098,46.2156863 89.3529412,43.1372549 93.1372549,43.1372549 C96.9215686,43.1372549 100,46.2156863 100,50 C100,53.7843137 96.9215686,56.8627451 93.1372549,56.8627451" id="Fill-6" fill="#004BFF"></path>
                <path d="M24.5098039,60.7843137 C22.8882353,60.7843137 21.5686275,62.1039216 21.5686275,63.7254902 L21.5686275,95.0980392 C21.5686275,96.7196078 22.8882353,98.0392157 24.5098039,98.0392157 L75.4901961,98.0392157 C77.1117647,98.0392157 78.4313725,96.7196078 78.4313725,95.0980392 L78.4313725,63.7254902 C78.4313725,62.1039216 77.1117647,60.7843137 75.4901961,60.7843137 L24.5098039,60.7843137 Z M75.4901961,100 L24.5098039,100 C21.8058824,100 19.6078431,97.8019608 19.6078431,95.0980392 L19.6078431,63.7254902 C19.6078431,61.0215686 21.8058824,58.8235294 24.5098039,58.8235294 L75.4901961,58.8235294 C78.1941176,58.8235294 80.3921569,61.0215686 80.3921569,63.7254902 L80.3921569,95.0980392 C80.3921569,97.8019608 78.1941176,100 75.4901961,100 Z" id="Fill-8" fill="#231F20"></path>
                <mask id="mask-2" fill="white">
                    <use xlink:href="#path-1"></use>
                </mask>
                <g id="Clip-11"></g>
                <polygon id="Fill-10" fill="#231F20" mask="url(#mask-2)" points="20.5882353 68.627451 79.4117647 68.627451 79.4117647 66.6666667 20.5882353 66.6666667"></polygon>
                <polygon id="Fill-12" fill="#231F20" mask="url(#mask-2)" points="28.2607843 84.3137255 55.8823529 84.3137255 55.8823529 82.3529412 28.2607843 82.3529412"></polygon>
                <polygon id="Fill-13" fill="#231F20" mask="url(#mask-2)" points="28.2607843 90.1960784 55.8823529 90.1960784 55.8823529 88.2352941 28.2607843 88.2352941"></polygon>
                <path d="M41.1764706,19.6078431 L58.8235294,19.6078431 L58.8235294,1.96078431 L41.1764706,1.96078431 L41.1764706,19.6078431 Z M39.2156863,21.5686275 L60.7843137,21.5686275 L60.7843137,0 L39.2156863,0 L39.2156863,21.5686275 Z" id="Fill-14" fill="#231F20" mask="url(#mask-2)"></path>
                <path d="M41.1764706,39.2156863 L58.8235294,39.2156863 L58.8235294,21.5686275 L41.1764706,21.5686275 L41.1764706,39.2156863 Z M39.2156863,41.1764706 L60.7843137,41.1764706 L60.7843137,19.6078431 L39.2156863,19.6078431 L39.2156863,41.1764706 Z" id="Fill-15" fill="#231F20" mask="url(#mask-2)"></path>
                <path d="M62.745098,90.1960784 L70.5882353,90.1960784 L70.5882353,82.3529412 L62.745098,82.3529412 L62.745098,90.1960784 Z M60.7843137,92.1568627 L72.5490196,92.1568627 L72.5490196,80.3921569 L60.7843137,80.3921569 L60.7843137,92.1568627 Z" id="Fill-16" fill="#004BFF" mask="url(#mask-2)"></path>
                <path d="M24.5098039,1.96078431 C22.8882353,1.96078431 21.5686275,3.28039216 21.5686275,4.90196078 L21.5686275,36.2745098 C21.5686275,37.8960784 22.8882353,39.2156863 24.5098039,39.2156863 L75.4901961,39.2156863 C77.1117647,39.2156863 78.4313725,37.8960784 78.4313725,36.2745098 L78.4313725,4.90196078 C78.4313725,3.28039216 77.1117647,1.96078431 75.4901961,1.96078431 L24.5098039,1.96078431 Z M75.4901961,41.1764706 L24.5098039,41.1764706 C21.8058824,41.1764706 19.6078431,38.9784314 19.6078431,36.2745098 L19.6078431,4.90196078 C19.6078431,2.19803922 21.8058824,0 24.5098039,0 L75.4901961,0 C78.1941176,0 80.3921569,2.19803922 80.3921569,4.90196078 L80.3921569,36.2745098 C80.3921569,38.9784314 78.1941176,41.1764706 75.4901961,41.1764706 Z" id="Fill-17" fill="#231F20" mask="url(#mask-2)"></path>
                <polygon id="Fill-18" fill="#231F20" mask="url(#mask-2)" points="20.5882353 21.5686275 79.4117647 21.5686275 79.4117647 19.6078431 20.5882353 19.6078431"></polygon>
            </g>
        </g>
    </g>
</svg>