<?xml version="1.0" encoding="UTF-8"?>
<svg width="100px" height="100px" viewBox="0 0 100 100" version="1.1" xmlns="http://www.w3.org/2000/svg" xmlns:xlink="http://www.w3.org/1999/xlink">
    <!-- Generator: Sketch 50.2 (55047) - http://www.bohemiancoding.com/sketch -->
    <title>icon/optimize-machine</title>
    <desc>Created with Sketch.</desc>
    <defs></defs>
    <g id="icon/optimize-machine" stroke="none" stroke-width="1" fill="none" fill-rule="evenodd">
        <g>
            <path d="M53.9215686,46.0784314 L76.3431373,23.6568627" id="Fill-1" fill="#FFFFFF"></path>
            <polygon id="Fill-2" fill="#004BFF" points="54.6147059 46.7715686 53.2284314 45.3852941 75.65 22.9637255 77.0362745 24.35"></polygon>
            <g id="Group-43">
                <path d="M70.5882353,50 L68.627451,50 C68.627451,39.7294118 60.2705882,31.372549 50,31.372549 L50,29.4117647 C61.3529412,29.4117647 70.5882353,38.6470588 70.5882353,50" id="Fill-3" fill="#231F20"></path>
                <path d="M50,70.5882353 C38.6470588,70.5882353 29.4117647,61.3529412 29.4117647,50 C29.4117647,38.6470588 38.6470588,29.4117647 50,29.4117647 L50,31.372549 C39.7294118,31.372549 31.372549,39.7294118 31.372549,50 C31.372549,60.2705882 39.7294118,68.627451 50,68.627451 C60.2705882,68.627451 68.627451,60.2705882 68.627451,50 L70.5882353,50 C70.5882353,61.3529412 61.3529412,70.5882353 50,70.5882353" id="Fill-5" fill="#231F20"></path>
                <path d="M50,7.84313725 C26.754902,7.84313725 7.84313725,26.754902 7.84313725,50 C7.84313725,73.245098 26.754902,92.1568627 50,92.1568627 C73.245098,92.1568627 92.1568627,73.245098 92.1568627,50 C92.1568627,26.754902 73.245098,7.84313725 50,7.84313725 M50,94.1176471 C25.6745098,94.1176471 5.88235294,74.3254902 5.88235294,50 C5.88235294,25.6745098 25.6745098,5.88235294 50,5.88235294 C74.3254902,5.88235294 94.1176471,25.6745098 94.1176471,50 C94.1176471,74.3254902 74.3254902,94.1176471 50,94.1176471" id="Fill-7" fill="#231F20"></path>
                <path d="M15.3378431,23.6576471 C13.0398039,21.3596078 13.0398039,17.6360784 15.3378431,15.3380392 C17.6358824,13.04 21.3594118,13.04 23.657451,15.3380392 C25.9535294,17.6360784 25.9535294,21.3596078 23.657451,23.6576471 C21.3594118,25.9537255 17.6358824,25.9537255 15.3378431,23.6576471" id="Fill-9" fill="#FFFFFF"></path>
                <path d="M16.0309804,22.9645098 C17.9388235,24.8743137 21.0505882,24.8782353 22.9643137,22.9645098 C24.8741176,21.0527451 24.8741176,17.9409804 22.9643137,16.0311765 C21.0505882,14.1154902 17.9388235,14.1194118 16.0309804,16.0311765 C14.1192157,17.9409804 14.1192157,21.0527451 16.0309804,22.9645098 M19.4976471,26.3547059 C17.7407843,26.3547059 15.9839216,25.6880392 14.6447059,24.3507843 C11.9682353,21.6743137 11.9682353,17.3213725 14.6447059,14.644902 C17.3211765,11.9703922 21.6741176,11.9684314 24.3505882,14.644902 C27.0231373,17.3213725 27.0231373,21.6743137 24.3505882,24.3507843 C23.0133333,25.6880392 21.2545098,26.3547059 19.4976471,26.3547059" id="Fill-11" fill="#004BFF"></path>
                <path d="M6.8627451,55.8823529 C3.61372549,55.8823529 0.980392157,53.2490196 0.980392157,50 C0.980392157,46.7509804 3.61372549,44.1176471 6.8627451,44.1176471 C10.1117647,44.1176471 12.745098,46.7509804 12.745098,50 C12.745098,53.2490196 10.1117647,55.8823529 6.8627451,55.8823529" id="Fill-13" fill="#FFFFFF"></path>
                <path d="M6.8627451,45.0980392 C4.15882353,45.0980392 1.96078431,47.2960784 1.96078431,50 C1.96078431,52.7039216 4.15882353,54.9019608 6.8627451,54.9019608 C9.56666667,54.9019608 11.7647059,52.7039216 11.7647059,50 C11.7647059,47.2960784 9.56666667,45.0980392 6.8627451,45.0980392 M6.8627451,56.8627451 C3.07843137,56.8627451 0,53.7843137 0,50 C0,46.2156863 3.07843137,43.1372549 6.8627451,43.1372549 C10.6470588,43.1372549 13.7254902,46.2156863 13.7254902,50 C13.7254902,53.7843137 10.6470588,56.8627451 6.8627451,56.8627451" id="Fill-15" fill="#231F20"></path>
                <path d="M23.6576471,84.6621569 C21.3596078,86.9601961 17.6360784,86.9601961 15.3380392,84.6621569 C13.04,82.3641176 13.04,78.6405882 15.3380392,76.342549 C17.6360784,74.0464706 21.3596078,74.0464706 23.6576471,76.342549 C25.9537255,78.6405882 25.9537255,82.3641176 23.6576471,84.6621569" id="Fill-17" fill="#FFFFFF"></path>
                <path d="M19.4986275,75.6031373 C18.2417647,75.6031373 16.9868627,76.0796078 16.03,77.0345098 C14.1201961,78.9462745 14.1201961,82.0580392 16.03,83.9698039 C17.9417647,85.8796078 21.0535294,85.8756863 22.9652941,83.9698039 C24.8731373,82.0580392 24.8731373,78.9462745 22.9652941,77.0345098 C22.0084314,76.0796078 20.7535294,75.6031373 19.4986275,75.6031373 M19.4986275,87.3619608 C17.7417647,87.3619608 15.9829412,86.6933333 14.6437255,85.3560784 C11.9672549,82.6776471 11.9672549,78.3266667 14.6437255,75.6482353 C17.3221569,72.9776471 21.6731373,72.9737255 24.3515686,75.6482353 C27.0241176,78.3266667 27.0241176,82.6776471 24.3515686,85.3560784 C23.0123529,86.6933333 21.2554902,87.3619608 19.4986275,87.3619608" id="Fill-19" fill="#004BFF"></path>
                <path d="M55.8823529,93.1372549 C55.8823529,96.3862745 53.2490196,99.0196078 50,99.0196078 C46.7509804,99.0196078 44.1176471,96.3862745 44.1176471,93.1372549 C44.1176471,89.8882353 46.7509804,87.254902 50,87.254902 C53.2490196,87.254902 55.8823529,89.8882353 55.8823529,93.1372549" id="Fill-21" fill="#FFFFFF"></path>
                <path d="M50,88.2352941 C47.2960784,88.2352941 45.0980392,90.4333333 45.0980392,93.1372549 C45.0980392,95.8411765 47.2960784,98.0392157 50,98.0392157 C52.7039216,98.0392157 54.9019608,95.8411765 54.9019608,93.1372549 C54.9019608,90.4333333 52.7039216,88.2352941 50,88.2352941 M50,100 C46.2156863,100 43.1372549,96.9215686 43.1372549,93.1372549 C43.1372549,89.3529412 46.2156863,86.2745098 50,86.2745098 C53.7843137,86.2745098 56.8627451,89.3529412 56.8627451,93.1372549 C56.8627451,96.9215686 53.7843137,100 50,100" id="Fill-23" fill="#231F20"></path>
                <path d="M84.6621569,76.3423529 C86.9601961,78.6403922 86.9601961,82.3639216 84.6621569,84.6619608 C82.3641176,86.96 78.6405882,86.96 76.342549,84.6619608 C74.0464706,82.3639216 74.0464706,78.6403922 76.342549,76.3423529 C78.6405882,74.0462745 82.3641176,74.0462745 84.6621569,76.3423529" id="Fill-25" fill="#FFFFFF"></path>
                <path d="M80.5013725,75.6031373 C79.2464706,75.6031373 77.9915686,76.0796078 77.0347059,77.0345098 C75.1268627,78.9462745 75.1268627,82.0580392 77.0347059,83.9698039 C78.9464706,85.8796078 82.0582353,85.8756863 83.97,83.9698039 C85.8798039,82.0580392 85.8798039,78.9462745 83.97,77.0345098 C83.0131373,76.0796078 81.7582353,75.6031373 80.5013725,75.6031373 M80.5013725,87.3619608 C78.7445098,87.3619608 76.9876471,86.6933333 75.6484314,85.3560784 C72.9758824,82.6776471 72.9758824,78.3266667 75.6484314,75.6482353 C78.3268627,72.9776471 82.6778431,72.9737255 85.3562745,75.6482353 C88.0327451,78.3266667 88.0327451,82.6776471 85.3562745,85.3560784 C84.0170588,86.6933333 82.2582353,87.3619608 80.5013725,87.3619608" id="Fill-27" fill="#004BFF"></path>
                <path d="M93.1372549,44.1176471 C96.3862745,44.1176471 99.0196078,46.7509804 99.0196078,50 C99.0196078,53.2490196 96.3862745,55.8823529 93.1372549,55.8823529 C89.8882353,55.8823529 87.254902,53.2490196 87.254902,50 C87.254902,46.7509804 89.8882353,44.1176471 93.1372549,44.1176471" id="Fill-29" fill="#FFFFFF"></path>
                <path d="M93.1372549,45.0980392 C90.4333333,45.0980392 88.2352941,47.2960784 88.2352941,50 C88.2352941,52.7039216 90.4333333,54.9019608 93.1372549,54.9019608 C95.8411765,54.9019608 98.0392157,52.7039216 98.0392157,50 C98.0392157,47.2960784 95.8411765,45.0980392 93.1372549,45.0980392 M93.1372549,56.8627451 C89.3529412,56.8627451 86.2745098,53.7843137 86.2745098,50 C86.2745098,46.2156863 89.3529412,43.1372549 93.1372549,43.1372549 C96.9215686,43.1372549 100,46.2156863 100,50 C100,53.7843137 96.9215686,56.8627451 93.1372549,56.8627451" id="Fill-31" fill="#231F20"></path>
                <path d="M76.3423529,15.3378431 C78.6403922,13.0398039 82.3639216,13.0398039 84.6619608,15.3378431 C86.96,17.6358824 86.96,21.3594118 84.6619608,23.657451 C82.3639216,25.9535294 78.6403922,25.9535294 76.3423529,23.657451 C74.0462745,21.3594118 74.0462745,17.6358824 76.3423529,15.3378431" id="Fill-33" fill="#FFFFFF"></path>
                <path d="M77.0354902,16.0309804 C75.1256863,17.9427451 75.1256863,21.0545098 77.0354902,22.9643137 C78.9472549,24.8780392 82.0590196,24.8741176 83.9688235,22.9643137 C85.8805882,21.0545098 85.8805882,17.9427451 83.9688235,16.0309804 C82.055098,14.1152941 78.9433333,14.1192157 77.0354902,16.0309804 M80.5021569,26.3564706 C78.7452941,26.3564706 76.9884314,25.6878431 75.6492157,24.3505882 C72.9766667,21.6741176 72.9766667,17.3211765 75.6492157,14.6447059 C78.3276471,11.9682353 82.6805882,11.9701961 85.355098,14.6447059 C88.0315686,17.3211765 88.0315686,21.6741176 85.355098,24.3505882 C84.0178431,25.6878431 82.2590196,26.3564706 80.5021569,26.3564706" id="Fill-35" fill="#004BFF"></path>
                <path d="M50,45.0980392 C48.6901961,45.0980392 47.4588235,45.6078431 46.5333333,46.5333333 C45.6078431,47.4588235 45.0980392,48.6901961 45.0980392,50 C45.0980392,51.3098039 45.6078431,52.5411765 46.5333333,53.4666667 C48.3843137,55.3196078 51.6156863,55.3196078 53.4666667,53.4666667 C54.3921569,52.5411765 54.9019608,51.3098039 54.9019608,50 C54.9019608,48.6901961 54.3921569,47.4588235 53.4666667,46.5333333 C52.5411765,45.6078431 51.3098039,45.0980392 50,45.0980392 M50,56.8627451 C48.1647059,56.8627451 46.4431373,56.1490196 45.1470588,54.8529412 C43.8509804,53.5568627 43.1372549,51.8352941 43.1372549,50 C43.1372549,48.1666667 43.8509804,46.445098 45.1470588,45.1470588 C47.7431373,42.5529412 52.2647059,42.5568627 54.8529412,45.1470588 C56.1490196,46.4431373 56.8627451,48.1647059 56.8627451,50 C56.8627451,51.8352941 56.1490196,53.5568627 54.8529412,54.8529412 C53.5568627,56.1490196 51.8352941,56.8627451 50,56.8627451" id="Fill-37" fill="#004BFF"></path>
                <path d="M44.1176471,6.8627451 C44.1176471,3.61372549 46.7509804,0.980392157 50,0.980392157 C53.2490196,0.980392157 55.8823529,3.61372549 55.8823529,6.8627451 C55.8823529,10.1117647 53.2490196,12.745098 50,12.745098 C46.7509804,12.745098 44.1176471,10.1117647 44.1176471,6.8627451" id="Fill-39" fill="#FFFFFF"></path>
                <path d="M50,1.96078431 C47.2960784,1.96078431 45.0980392,4.15882353 45.0980392,6.8627451 C45.0980392,9.56666667 47.2960784,11.7647059 50,11.7647059 C52.7039216,11.7647059 54.9019608,9.56666667 54.9019608,6.8627451 C54.9019608,4.15882353 52.7039216,1.96078431 50,1.96078431 M50,13.7254902 C46.2156863,13.7254902 43.1372549,10.6470588 43.1372549,6.8627451 C43.1372549,3.07843137 46.2156863,0 50,0 C53.7843137,0 56.8627451,3.07843137 56.8627451,6.8627451 C56.8627451,10.6470588 53.7843137,13.7254902 50,13.7254902" id="Fill-41" fill="#231F20"></path>
            </g>
        </g>
    </g>
</svg>