<?xml version="1.0" encoding="UTF-8"?>
<svg width="99px" height="100px" viewBox="0 0 99 100" version="1.1" xmlns="http://www.w3.org/2000/svg" xmlns:xlink="http://www.w3.org/1999/xlink">
    <!-- Generator: Sketch 50.2 (55047) - http://www.bohemiancoding.com/sketch -->
    <title>icon/consult</title>
    <desc>Created with Sketch.</desc>
    <defs>
        <polygon id="path-1" points="0 99 98.0769231 99 98.0769231 0.525 0 0.525"></polygon>
    </defs>
    <g id="icon/consult" stroke="none" stroke-width="1" fill="none" fill-rule="evenodd">
        <g>
            <polygon id="Fill-1" fill="#231F20" points="12.5 8.21730769 85.5769231 8.21730769 85.5769231 6.29423077 12.5 6.29423077"></polygon>
            <polygon id="Fill-2" fill="#231F20" points="5.76923077 72.6403846 7.69230769 72.6403846 7.69230769 13.025 5.76923077 13.025"></polygon>
            <polygon id="Fill-3" fill="#231F20" points="90.3846154 72.6403846 92.3076923 72.6403846 92.3076923 13.025 90.3846154 13.025"></polygon>
            <g id="Group-20">
                <path d="M6.73076923,2.44807692 C4.07884615,2.44807692 1.92307692,4.60384615 1.92307692,7.25576923 C1.92307692,9.90769231 4.07884615,12.0634615 6.73076923,12.0634615 C9.38269231,12.0634615 11.5384615,9.90769231 11.5384615,7.25576923 C11.5384615,4.60384615 9.38269231,2.44807692 6.73076923,2.44807692 M6.73076923,13.9865385 C3.01923077,13.9865385 0,10.9673077 0,7.25576923 C0,3.54423077 3.01923077,0.525 6.73076923,0.525 C10.4423077,0.525 13.4615385,3.54423077 13.4615385,7.25576923 C13.4615385,10.9673077 10.4423077,13.9865385 6.73076923,13.9865385" id="Fill-4" fill="#004BFF"></path>
                <path d="M91.3461538,2.44807692 C88.6942308,2.44807692 86.5384615,4.60384615 86.5384615,7.25576923 C86.5384615,9.90769231 88.6942308,12.0634615 91.3461538,12.0634615 C93.9980769,12.0634615 96.1538462,9.90769231 96.1538462,7.25576923 C96.1538462,4.60384615 93.9980769,2.44807692 91.3461538,2.44807692 M91.3461538,13.9865385 C87.6346154,13.9865385 84.6153846,10.9673077 84.6153846,7.25576923 C84.6153846,3.54423077 87.6346154,0.525 91.3461538,0.525 C95.0576923,0.525 98.0769231,3.54423077 98.0769231,7.25576923 C98.0769231,10.9673077 95.0576923,13.9865385 91.3461538,13.9865385" id="Fill-6" fill="#004BFF"></path>
                <polygon id="Fill-8" fill="#231F20" points="49.0384615 99 29.4096154 79.3711538 12.5 79.3711538 12.5 77.4480769 30.2057692 77.4480769 49.0384615 96.2807692 67.8711538 77.4480769 85.5769231 77.4480769 85.5769231 79.3711538 68.6673077 79.3711538"></polygon>
                <path d="M6.73076923,73.6019231 C4.07884615,73.6019231 1.92307692,75.7576923 1.92307692,78.4096154 C1.92307692,81.0615385 4.07884615,83.2173077 6.73076923,83.2173077 C9.38269231,83.2173077 11.5384615,81.0615385 11.5384615,78.4096154 C11.5384615,75.7576923 9.38269231,73.6019231 6.73076923,73.6019231 M6.73076923,85.1403846 C3.01923077,85.1403846 0,82.1211538 0,78.4096154 C0,74.6980769 3.01923077,71.6788462 6.73076923,71.6788462 C10.4423077,71.6788462 13.4615385,74.6980769 13.4615385,78.4096154 C13.4615385,82.1211538 10.4423077,85.1403846 6.73076923,85.1403846" id="Fill-10" fill="#004BFF"></path>
                <path d="M91.3461538,73.6019231 C88.6942308,73.6019231 86.5384615,75.7576923 86.5384615,78.4096154 C86.5384615,81.0615385 88.6942308,83.2173077 91.3461538,83.2173077 C93.9980769,83.2173077 96.1538462,81.0615385 96.1538462,78.4096154 C96.1538462,75.7576923 93.9980769,73.6019231 91.3461538,73.6019231 M91.3461538,85.1403846 C87.6346154,85.1403846 84.6153846,82.1211538 84.6153846,78.4096154 C84.6153846,74.6980769 87.6346154,71.6788462 91.3461538,71.6788462 C95.0576923,71.6788462 98.0769231,74.6980769 98.0769231,78.4096154 C98.0769231,82.1211538 95.0576923,85.1403846 91.3461538,85.1403846" id="Fill-12" fill="#004BFF"></path>
                <mask id="mask-2" fill="white">
                    <use xlink:href="#path-1"></use>
                </mask>
                <g id="Clip-15"></g>
                <polygon id="Fill-14" fill="#004BFF" mask="url(#mask-2)" points="20.1923077 23.6019231 77.8846154 23.6019231 77.8846154 21.6788462 20.1923077 21.6788462"></polygon>
                <polygon id="Fill-16" fill="#000000" mask="url(#mask-2)" points="20.1923077 33.2173077 77.8846154 33.2173077 77.8846154 31.2942308 20.1923077 31.2942308"></polygon>
                <polygon id="Fill-17" fill="#004BFF" mask="url(#mask-2)" points="20.1923077 42.8326923 77.8846154 42.8326923 77.8846154 40.9096154 20.1923077 40.9096154"></polygon>
                <polygon id="Fill-18" fill="#000000" mask="url(#mask-2)" points="20.1923077 52.4480769 77.8846154 52.4480769 77.8846154 50.525 20.1923077 50.525"></polygon>
                <polygon id="Fill-19" fill="#004BFF" mask="url(#mask-2)" points="20.1923077 62.0634615 77.8846154 62.0634615 77.8846154 60.1403846 20.1923077 60.1403846"></polygon>
            </g>
        </g>
    </g>
</svg>