<?xml version="1.0" encoding="UTF-8"?>
<svg width="100px" height="100px" viewBox="0 0 100 100" version="1.1" xmlns="http://www.w3.org/2000/svg" xmlns:xlink="http://www.w3.org/1999/xlink">
    <!-- Generator: Sketch 50.2 (55047) - http://www.bohemiancoding.com/sketch -->
    <title>icon/economics</title>
    <desc>Created with Sketch.</desc>
    <defs>
        <polygon id="path-1" points="0 100 100 100 100 0 0 0"></polygon>
    </defs>
    <g id="icon/economics" stroke="none" stroke-width="1" fill="none" fill-rule="evenodd">
        <g>
            <path d="M70.5882353,90.1960784 L100,90.1960784 L100,78.4333333 L70.5882353,78.4333333 L70.5882353,90.1960784 Z M72.5490196,88.2352941 L98.0411765,88.2352941 L98.0411765,80.3921569 L72.5490196,80.3921569 L72.5490196,88.2352941 Z" id="Fill-1" fill="#004BFF"></path>
            <path d="M70.5882353,70.5882353 L100,70.5882353 L100,58.8254902 L70.5882353,58.8254902 L70.5882353,70.5882353 Z M72.5490196,68.627451 L98.0411765,68.627451 L98.0411765,60.7843137 L72.5490196,60.7843137 L72.5490196,68.627451 Z" id="Fill-2" fill="#004BFF"></path>
            <path d="M70.5882353,50.9803922 L100,50.9803922 L100,39.2176471 L70.5882353,39.2176471 L70.5882353,50.9803922 Z M72.5490196,49.0196078 L98.0411765,49.0196078 L98.0411765,41.1764706 L72.5490196,41.1764706 L72.5490196,49.0196078 Z" id="Fill-3" fill="#004BFF"></path>
            <path d="M37.254902,88.2352941 L62.745098,88.2352941 L62.745098,80.3921569 L37.254902,80.3921569 L37.254902,88.2352941 Z M35.2941176,90.1960784 L64.7058824,90.1960784 L64.7058824,78.4313725 L35.2941176,78.4313725 L35.2941176,90.1960784 Z" id="Fill-4" fill="#004BFF"></path>
            <path d="M37.254902,68.627451 L62.745098,68.627451 L62.745098,60.7843137 L37.254902,60.7843137 L37.254902,68.627451 Z M35.2941176,70.5882353 L64.7058824,70.5882353 L64.7058824,58.8235294 L35.2941176,58.8235294 L35.2941176,70.5882353 Z" id="Fill-5" fill="#004BFF"></path>
            <g id="Group-30">
                <path d="M14.7058824,60.7843137 C12.0019608,60.7843137 9.80392157,62.9823529 9.80392157,65.6862745 C9.80392157,68.3901961 12.0019608,70.5882353 14.7058824,70.5882353 C17.4098039,70.5882353 19.6078431,68.3901961 19.6078431,65.6862745 C19.6078431,62.9823529 17.4098039,60.7843137 14.7058824,60.7843137 M14.7058824,72.5490196 C10.9215686,72.5490196 7.84313725,69.4705882 7.84313725,65.6862745 C7.84313725,61.9019608 10.9215686,58.8235294 14.7058824,58.8235294 C18.4901961,58.8235294 21.5686275,61.9019608 21.5686275,65.6862745 C21.5686275,69.4705882 18.4901961,72.5490196 14.7058824,72.5490196" id="Fill-6" fill="#231F20"></path>
                <path d="M50,31.372549 C47.2960784,31.372549 45.0980392,33.5705882 45.0980392,36.2745098 C45.0980392,38.9784314 47.2960784,41.1764706 50,41.1764706 C52.7039216,41.1764706 54.9019608,38.9784314 54.9019608,36.2745098 C54.9019608,33.5705882 52.7039216,31.372549 50,31.372549 M50,43.1372549 C46.2156863,43.1372549 43.1372549,40.0588235 43.1372549,36.2745098 C43.1372549,32.4901961 46.2156863,29.4117647 50,29.4117647 C53.7843137,29.4117647 56.8627451,32.4901961 56.8627451,36.2745098 C56.8627451,40.0588235 53.7843137,43.1372549 50,43.1372549" id="Fill-8" fill="#231F20"></path>
                <path d="M85.2941176,1.96078431 C82.5901961,1.96078431 80.3921569,4.15882353 80.3921569,6.8627451 C80.3921569,9.56666667 82.5901961,11.7647059 85.2941176,11.7647059 C87.9980392,11.7647059 90.1960784,9.56666667 90.1960784,6.8627451 C90.1960784,4.15882353 87.9980392,1.96078431 85.2941176,1.96078431 M85.2941176,13.7254902 C81.5098039,13.7254902 78.4313725,10.6470588 78.4313725,6.8627451 C78.4313725,3.07843137 81.5098039,0 85.2941176,0 C89.0784314,0 92.1568627,3.07843137 92.1568627,6.8627451 C92.1568627,10.6470588 89.0784314,13.7254902 85.2941176,13.7254902" id="Fill-10" fill="#231F20"></path>
                <mask id="mask-2" fill="white">
                    <use xlink:href="#path-1"></use>
                </mask>
                <g id="Clip-13"></g>
                <path d="M1.96078431,98.0392157 L27.4509804,98.0392157 L27.4509804,90.1960784 L1.96078431,90.1960784 L1.96078431,98.0392157 Z M0,100 L29.4117647,100 L29.4117647,88.2352941 L0,88.2352941 L0,100 Z" id="Fill-12" fill="#231F20" mask="url(#mask-2)"></path>
                <path d="M37.254902,98.0392157 L62.745098,98.0392157 L62.745098,90.1960784 L37.254902,90.1960784 L37.254902,98.0392157 Z M35.2941176,100 L64.7058824,100 L64.7058824,88.2352941 L35.2941176,88.2352941 L35.2941176,100 Z" id="Fill-14" fill="#231F20" mask="url(#mask-2)"></path>
                <path d="M72.5490196,98.0392157 L98.0392157,98.0392157 L98.0392157,90.1960784 L72.5490196,90.1960784 L72.5490196,98.0392157 Z M70.5882353,100 L100,100 L100,88.2352941 L70.5882353,88.2352941 L70.5882353,100 Z" id="Fill-15" fill="#231F20" mask="url(#mask-2)"></path>
                <path d="M72.5490196,78.4313725 L98.0392157,78.4313725 L98.0392157,70.5882353 L72.5490196,70.5882353 L72.5490196,78.4313725 Z M70.5882353,80.3921569 L100,80.3921569 L100,68.627451 L70.5882353,68.627451 L70.5882353,80.3921569 Z" id="Fill-16" fill="#231F20" mask="url(#mask-2)"></path>
                <path d="M72.5490196,58.8235294 L98.0392157,58.8235294 L98.0392157,50.9803922 L72.5490196,50.9803922 L72.5490196,58.8235294 Z M70.5882353,60.7843137 L100,60.7843137 L100,49.0196078 L70.5882353,49.0196078 L70.5882353,60.7843137 Z" id="Fill-17" fill="#231F20" mask="url(#mask-2)"></path>
                <path d="M72.5490196,39.2156863 L98.0392157,39.2156863 L98.0392157,31.372549 L72.5490196,31.372549 L72.5490196,39.2156863 Z M70.5882353,41.1764706 L100,41.1764706 L100,29.4117647 L70.5882353,29.4117647 L70.5882353,41.1764706 Z" id="Fill-18" fill="#231F20" mask="url(#mask-2)"></path>
                <path d="M37.254902,78.4313725 L62.745098,78.4313725 L62.745098,70.5882353 L37.254902,70.5882353 L37.254902,78.4313725 Z M35.2941176,80.3921569 L64.7058824,80.3921569 L64.7058824,68.627451 L35.2941176,68.627451 L35.2941176,80.3921569 Z" id="Fill-19" fill="#231F20" mask="url(#mask-2)"></path>
                <path d="M37.254902,58.8235294 L62.745098,58.8235294 L62.745098,50.9803922 L37.254902,50.9803922 L37.254902,58.8235294 Z M35.2941176,60.7843137 L64.7058824,60.7843137 L64.7058824,49.0196078 L35.2941176,49.0196078 L35.2941176,60.7843137 Z" id="Fill-20" fill="#231F20" mask="url(#mask-2)"></path>
                <polygon id="Fill-21" fill="#231F20" mask="url(#mask-2)" points="13.7254902 59.8039216 15.6862745 59.8039216 15.6862745 42.1568627 13.7254902 42.1568627"></polygon>
                <polygon id="Fill-22" fill="#231F20" mask="url(#mask-2)" points="20.5882353 37.254902 44.1176471 37.254902 44.1176471 35.2941176 20.5882353 35.2941176"></polygon>
                <polygon id="Fill-23" fill="#231F20" mask="url(#mask-2)" points="49.0196078 30.3921569 50.9803922 30.3921569 50.9803922 12.745098 49.0196078 12.745098"></polygon>
                <polygon id="Fill-24" fill="#231F20" mask="url(#mask-2)" points="55.8823529 7.84313725 79.4117647 7.84313725 79.4117647 5.88235294 55.8823529 5.88235294"></polygon>
                <path d="M72.5490196,98.0392157 L98.0392157,98.0392157 L98.0392157,21.5686275 L72.5490196,21.5686275 L72.5490196,98.0392157 Z M70.5882353,100 L100,100 L100,19.6078431 L70.5882353,19.6078431 L70.5882353,100 Z" id="Fill-25" fill="#004BFF" mask="url(#mask-2)"></path>
                <path d="M37.254902,98.0392157 L62.745098,98.0392157 L62.745098,50.9803922 L37.254902,50.9803922 L37.254902,98.0392157 Z M35.2941176,100 L64.7058824,100 L64.7058824,49.0196078 L35.2941176,49.0196078 L35.2941176,100 Z" id="Fill-26" fill="#004BFF" mask="url(#mask-2)"></path>
                <path d="M1.96078431,98.0392157 L27.4509804,98.0392157 L27.4509804,80.3921569 L1.96078431,80.3921569 L1.96078431,98.0392157 Z M0,100 L29.4117647,100 L29.4117647,78.4313725 L0,78.4313725 L0,100 Z" id="Fill-27" fill="#004BFF" mask="url(#mask-2)"></path>
                <path d="M14.7058824,31.372549 C12.0019608,31.372549 9.80392157,33.5705882 9.80392157,36.2745098 C9.80392157,38.9784314 12.0019608,41.1764706 14.7058824,41.1764706 C17.4098039,41.1764706 19.6078431,38.9784314 19.6078431,36.2745098 C19.6078431,33.5705882 17.4098039,31.372549 14.7058824,31.372549 M14.7058824,43.1372549 C10.9215686,43.1372549 7.84313725,40.0588235 7.84313725,36.2745098 C7.84313725,32.4901961 10.9215686,29.4117647 14.7058824,29.4117647 C18.4901961,29.4117647 21.5686275,32.4901961 21.5686275,36.2745098 C21.5686275,40.0588235 18.4901961,43.1372549 14.7058824,43.1372549" id="Fill-28" fill="#004BFF" mask="url(#mask-2)"></path>
                <path d="M50,1.96078431 C47.2960784,1.96078431 45.0980392,4.15882353 45.0980392,6.8627451 C45.0980392,9.56666667 47.2960784,11.7647059 50,11.7647059 C52.7039216,11.7647059 54.9019608,9.56666667 54.9019608,6.8627451 C54.9019608,4.15882353 52.7039216,1.96078431 50,1.96078431 M50,13.7254902 C46.2156863,13.7254902 43.1372549,10.6470588 43.1372549,6.8627451 C43.1372549,3.07843137 46.2156863,0 50,0 C53.7843137,0 56.8627451,3.07843137 56.8627451,6.8627451 C56.8627451,10.6470588 53.7843137,13.7254902 50,13.7254902" id="Fill-29" fill="#004BFF" mask="url(#mask-2)"></path>
            </g>
        </g>
    </g>
</svg>