<?xml version="1.0" encoding="UTF-8"?>
<svg width="100px" height="100px" viewBox="0 0 100 100" version="1.1" xmlns="http://www.w3.org/2000/svg" xmlns:xlink="http://www.w3.org/1999/xlink">
    <!-- Generator: Sketch 50.2 (55047) - http://www.bohemiancoding.com/sketch -->
    <title>favicon</title>
    <desc>Created with Sketch.</desc>
    <defs>
        <polygon id="path-1" points="0 0 99.5134896 0 99.5134896 99.5134896 0 99.5134896"></polygon>
    </defs>
    <g id="favicon" stroke="none" stroke-width="1" fill="none" fill-rule="evenodd">
        <g id="blue-globe">
            <mask id="mask-2" fill="white">
                <use xlink:href="#path-1"></use>
            </mask>
            <g id="Clip-2"></g>
            <path d="M60.1487997,51.4882825 C55.4091148,51.4882825 51.4854404,55.4105352 51.4882836,60.1473768 C51.4925485,64.8870616 55.3209742,68.5633739 59.9654106,68.4723901 C64.6141118,68.3799848 68.3828295,64.6112671 68.4723916,59.9639877 C68.5676402,55.3223947 64.8856414,51.4868609 60.1487997,51.4882825 M39.36612,51.4882825 C34.6292783,51.4868609 30.9501227,55.3238163 31.0411065,59.9639877 C31.1377767,64.6112671 34.9022295,68.3799848 39.5495091,68.4723901 C44.1896806,68.5633739 48.0280577,64.8870616 48.0266361,60.1473768 C48.0252145,55.4105352 44.1015401,51.4882825 39.36612,51.4882825 M59.9654106,31.0411058 C55.3223959,30.950122 51.4882836,34.6250127 51.4882836,39.3661191 C51.4897052,44.1029607 55.4148012,48.0252134 60.1487997,48.0237918 C64.8856414,48.0252134 68.5633753,44.1896796 68.4723916,39.5480866 C68.3828295,34.9008071 64.6098469,31.1320895 59.9654106,31.0411058 M71.7179527,39.6205893 C71.7890338,43.3295988 74.7104652,46.4017221 78.0669128,46.4258896 C81.4190955,46.4500572 83.8756569,43.5712744 83.7846731,40.034281 C83.6908461,36.4944444 81.079328,33.4877157 77.7413616,33.2957969 C74.4133464,33.1052997 71.6397635,35.9115798 71.7179527,39.6205893 M71.7179527,59.891485 C71.6397635,63.6004945 74.4190329,66.4081962 77.7413616,66.2162774 C81.079328,66.0257802 83.6880029,63.0190515 83.7846731,59.4777932 C83.8742352,55.9407999 81.4219387,53.0620171 78.0669128,53.0876063 C74.7133085,53.1117738 71.7904554,56.1824755 71.7179527,59.891485 M15.7316682,40.034281 C15.6421061,43.5712744 18.0944026,46.4500572 21.4480069,46.4258896 C24.7945031,46.4017221 27.7315724,43.3295988 27.796967,39.6205893 C27.8779994,35.9115798 25.1029949,33.1052997 21.7749797,33.2957969 C18.4384349,33.4862941 15.8240736,36.4944444 15.7316682,40.034281 M15.7316682,59.4777932 C15.8254952,63.0190515 18.4398565,66.0257802 21.7749797,66.2162774 C25.1072597,66.4081962 27.8708913,63.6019161 27.796967,59.891485 C27.7301508,56.1824755 24.7930815,53.1103522 21.4480069,53.0876063 C18.0929809,53.0620171 15.6392628,55.9407999 15.7316682,59.4777932 M59.8929079,71.7165295 C56.1838983,71.7876106 53.1131966,74.7161501 53.0876074,78.0654895 C53.0662831,81.4176721 55.9393794,83.8756551 59.4792161,83.7832497 C63.0218961,83.6894227 66.02436,81.0750614 66.2191221,77.7399383 C66.406776,74.4119232 63.6033391,71.639762 59.8929079,71.7165295 M39.6234334,71.7165295 C35.9115806,71.639762 33.1053004,74.4119232 33.2957976,77.7399383 C33.4948246,81.0750614 36.4887587,83.6894227 40.0357035,83.7832497 C43.5755402,83.8756551 46.4514798,81.4176721 46.4273123,78.0654895 C46.4088312,74.7161501 43.332443,71.7876106 39.6234334,71.7165295 M86.5127641,59.3441609 C86.4431047,61.9841113 88.1703744,63.9544782 90.2004494,63.7554512 C92.243319,63.5564243 93.7587672,61.3657061 93.8071023,58.8693394 C93.8511725,56.3758159 92.4295514,54.3940761 90.419379,54.4480977 C88.4134716,54.5035409 86.5795803,56.7027888 86.5127641,59.3441609 M86.5127641,40.1679134 C86.5738938,42.8092855 88.4148932,45.009955 90.419379,45.0639766 C92.4352379,45.1194198 93.8483293,43.1362584 93.8071023,40.6427349 C93.7601888,38.1477898 92.2376325,35.9570716 90.2004494,35.7566231 C88.1675311,35.5575961 86.441683,37.527963 86.5127641,40.1679134 M5.7078174,58.8693394 C5.75188766,61.3657061 7.28013041,63.5564243 9.31447028,63.7554512 C11.3502318,63.9544782 13.071815,61.9855329 13.0035772,59.3441609 C12.9339178,56.7027888 11.1042913,54.5035409 9.09554063,54.4480977 C7.08110344,54.3940761 5.67227687,56.3758159 5.7078174,58.8693394 M72.5353849,77.414387 C72.3591038,79.902224 74.2711843,81.6778288 76.7220592,81.4802235 C79.1786205,81.2826181 81.2840415,79.1828837 81.4816468,76.7220575 C81.6806738,74.2669179 79.9008041,72.3633672 77.4158103,72.5339617 C74.9279733,72.7002914 72.7017145,74.9251284 72.5353849,77.414387 M18.0332729,76.7220575 C18.2308782,79.1828837 20.3334559,81.2826181 22.7928605,81.4802235 C25.2465786,81.6778288 27.1501294,79.902224 26.9809564,77.414387 C26.8089403,74.9251284 24.5940545,72.7002914 22.0991094,72.5339617 C19.6155372,72.3633672 17.8285594,74.2654962 18.0332729,76.7220575 M72.5353849,22.0991089 C72.7002929,24.5869459 74.9279733,26.8132045 77.4158103,26.9795342 C79.9036473,27.1487071 81.6806738,25.2465781 81.4816468,22.7900167 C81.2840415,20.3306122 79.1800422,18.2308778 76.7220592,18.0318508 C74.2740275,17.8342455 72.3633687,19.6098503 72.5353849,22.0991089 M18.0332729,22.7900167 C17.8356675,25.2465781 19.612694,27.1487071 22.0991094,26.9795342 C24.5912113,26.8132045 26.8132051,24.5869459 26.9809564,22.0991089 C27.151551,19.6098503 25.2480002,17.8342455 22.7928605,18.0318508 C20.3348775,18.2308778 18.228035,20.3306122 18.0332729,22.7900167 M95.9011502,58.6873719 C95.8784043,60.3336092 96.7683391,61.5490952 97.781955,61.3984034 C98.802679,61.2477115 99.5134896,59.8488364 99.5134896,58.2864747 C99.5092247,56.7226915 98.8154736,55.5157352 97.8274469,55.5825513 C96.8394202,55.6522108 95.9238962,57.0411346 95.9011502,58.6873719 M38.1150934,97.7805313 C38.2615203,98.7984121 39.666082,99.5149091 41.2270221,99.5134875 C42.7879621,99.5092226 43.9991833,98.8168931 43.9309455,97.8260232 C43.8669726,96.8394181 42.4737838,95.9238941 40.8261249,95.9011482 C39.178466,95.8741374 37.9644015,96.7669155 38.1150934,97.7805313 M55.5839742,97.8260232 C55.517158,98.8168931 56.7283792,99.5092226 58.286476,99.5134875 C59.8488376,99.5149091 61.2533993,98.7984121 61.3998263,97.7805313 C61.5505182,96.7669155 60.3364537,95.8741374 58.6887948,95.9011482 C57.0454007,95.9238941 55.6564768,96.8394181 55.5839742,97.8260232 M38.1150934,1.73154295 C37.9658231,2.74515882 39.1798876,3.63935851 40.8261249,3.61234771 C42.4680973,3.58960177 43.8627077,2.67265614 43.9309455,1.68605108 C44.000605,0.696602769 42.7908053,0.00285165746 41.2270221,8.41520195e-06 C39.6675037,-0.00283482706 38.2615203,0.715083843 38.1150934,1.73154295 M55.5839742,1.68605108 C55.6493687,2.67265614 57.0397142,3.58960177 58.6887948,3.61234771 C60.3307672,3.63935851 61.5519398,2.74515882 61.3998263,1.73154295 C61.2505561,0.715083843 59.8531025,-0.00141320593 58.286476,8.41520262e-06 C56.7226927,0.00285165746 55.5143147,0.696602769 55.5839742,1.68605108 M95.9011502,40.826124 C95.9295827,42.4709397 96.8394202,43.8612851 97.8274469,43.9295229 C98.8197385,43.9977608 99.5078031,42.7893828 99.5134896,41.2270212 C99.5106464,39.6632379 98.802679,38.2643627 97.781955,38.1136709 C96.7654959,37.9644007 95.8784043,39.1798867 95.9011502,40.826124 M8.44847811e-06,58.2864747 C-0.00283479384,59.8488364 0.712240649,61.2477115 1.73296464,61.3984034 C2.75084539,61.5490952 3.63651537,60.3336092 3.61234781,58.6873719 C3.5981316,57.0411346 2.66981299,55.6522108 1.68747276,55.5825513 C0.696602817,55.5157352 0.00711655428,56.7226915 8.44847811e-06,58.2864747 M8.44847883e-06,41.2270212 C0.00995979659,42.7893828 0.696602817,43.9977608 1.68747276,43.9295229 C2.67265623,43.8612851 3.59528836,42.4709397 3.61234781,40.826124 C3.64220186,39.1798867 2.74800215,37.9644007 1.73296464,38.1136709 C0.715083892,38.2643627 0.00143006964,39.6632379 8.44847883e-06,41.2270212 M86.9833207,76.1249767 C86.8567964,77.7513112 87.9386501,78.8900298 89.3488983,78.6881596 C90.7591465,78.4862894 91.9291407,77.0262845 92.0272326,75.4198526 C92.1239028,73.8148423 91.1415626,72.6547995 89.7625901,72.836767 C88.3836175,73.0173129 87.1055801,74.4986421 86.9833207,76.1249767 M7.4876871,75.4198526 C7.58151409,77.0262845 8.75292993,78.4862894 10.167443,78.6881596 C11.5776912,78.8900298 12.6595449,77.7513112 12.531599,76.1249767 C12.4079179,74.4986421 11.1270373,73.0173129 9.75375122,72.836767 C8.37193546,72.6547995 7.39528172,73.8148423 7.4876871,75.4198526 M86.9833207,23.3870976 C87.1070017,25.0148538 88.3821959,26.496183 89.7625901,26.6767289 C91.140141,26.8572748 92.1210596,25.6986536 92.0272326,24.0922217 C91.9277191,22.4857898 90.7577249,21.0257849 89.3488983,20.8253363 C87.9457582,20.6234661 86.8511099,21.760763 86.9833207,23.3870976 M72.8381902,89.7611665 C72.6533794,91.1415607 73.8176872,92.1210576 75.4198542,92.025809 C77.0248645,91.9291388 78.4848694,90.7591446 78.6895829,89.3474748 C78.8928747,87.9386483 77.7541561,86.855373 76.1263999,86.9833189 C74.5014869,87.1084215 73.0187361,88.382194 72.8381902,89.7611665 M20.8253368,89.3474748 C21.027207,90.7591446 22.4928984,91.9291388 24.0950655,92.025809 C25.7000758,92.1210576 26.8558538,91.1415607 26.6781511,89.7611665 C26.4961836,88.382194 25.0148544,87.1084215 23.3899414,86.9833189 C21.7636068,86.855373 20.622045,87.9386483 20.8253368,89.3474748 M72.8381902,9.75232936 C73.0187361,11.1313019 74.4986437,12.4050744 76.1263999,12.5301771 C77.7484697,12.6567013 78.8914531,11.573426 78.6895829,10.1660211 C78.4877127,8.75435133 77.0248645,7.58293552 75.4198542,7.48768691 C73.8162655,7.39243829 72.6533794,8.37193525 72.8381902,9.75232936 M20.8253368,10.1660211 C20.622045,11.573426 21.7650284,12.6567013 23.3899414,12.5301771 C25.0134327,12.4050744 26.4990269,11.1298802 26.6781511,9.75232936 C26.8615403,8.37193525 25.6972325,7.39243829 24.0950655,7.48768691 C22.4872119,7.58293552 21.027207,8.75435133 20.8253368,10.1660211 M7.4876871,24.0922217 C7.39243848,25.6986536 8.37335708,26.8572748 9.75375122,26.6767289 C11.1327237,26.496183 12.4036531,25.0148538 12.531599,23.3870976 C12.6581233,21.760763 11.5720047,20.6234661 10.167443,20.8253363 C8.75435155,21.0257849 7.58151409,22.4872114 7.4876871,24.0922217 M5.7078174,40.6427349 C5.66232553,43.1362584 7.07968182,45.1194198 9.09554063,45.0639766 C11.1028697,45.009955 12.9381826,42.8092855 13.0035772,40.1679134 C13.0789231,37.527963 11.3459669,35.5575961 9.31447028,35.7566231 C7.28013041,35.9570716 5.7547309,38.1477898 5.7078174,40.6427349 M40.1693359,86.5113406 C37.5293854,86.438838 35.5561753,88.1675293 35.7594671,90.1990259 C35.9570724,92.2390522 38.1492123,93.7601868 40.6441574,93.8056787 C43.1376809,93.8483273 45.122264,92.4323926 45.0668208,90.4179555 C45.0113776,88.4092049 42.8149729,86.5753136 40.1693359,86.5113406 M59.3470054,86.5113406 C56.7070549,86.5753136 54.5078069,88.4092049 54.4480989,90.4179555 C54.391234,92.4323926 56.3815036,93.8483273 58.8721839,93.8056787 C61.367129,93.7601868 63.5521608,92.2390522 63.7568742,90.1990259 C63.9587444,88.1675293 61.9841126,86.438838 59.3470054,86.5113406 M40.6441574,5.70639563 C38.1449474,5.75188751 35.9613373,7.27444374 35.7594671,9.31304844 C35.5604401,11.3459667 37.5251206,13.0746579 40.1693359,13.0021553 C42.8121297,12.9367607 45.0113776,11.1028694 45.0668208,9.09411878 C45.122264,7.08110326 43.1319944,5.663747 40.6441574,5.70639563 M58.8721839,5.70639563 C56.3786604,5.663747 54.3883908,7.08110326 54.4480989,9.09411878 C54.5006988,11.1028694 56.7042116,12.9367607 59.3470054,13.0021553 C61.982691,13.0746579 63.9559012,11.3459667 63.7568742,9.31304844 C63.5578472,7.27444374 61.3642858,5.75188751 58.8721839,5.70639563 M59.4792161,15.7302462 C55.9422227,15.6378408 53.0662831,18.0944022 53.0876074,21.4480064 C53.1131966,24.7959242 56.1824767,27.7244637 59.8929079,27.7955447 C63.6033391,27.8737339 66.406776,25.1001511 66.2191221,21.7735576 C66.0272032,18.4370128 63.0162096,15.8226516 59.4792161,15.7302462 M40.0357035,15.7302462 C36.4972885,15.8226516 33.4848732,18.4370128 33.2957976,21.7735576 C33.1081436,25.1001511 35.9130022,27.8737339 39.6234334,27.7955447 C43.3281781,27.7244637 46.4045663,24.7959242 46.4273123,21.4480064 C46.4486366,18.0944022 43.5698537,15.6378408 40.0357035,15.7302462 M48.0266361,39.3661191 C48.0252145,44.1029607 44.1015401,48.0252134 39.36612,48.0237918 C34.6292783,48.0252134 30.9501227,44.1896796 31.0411065,39.5480866 C31.1377767,34.9008071 34.9022295,31.1320895 39.5495091,31.0411058 C44.1896806,30.950122 48.0280577,34.6250127 48.0266361,39.3661191" id="Fill-1" fill="#004AFF" mask="url(#mask-2)"></path>
        </g>
    </g>
</svg>