<?xml version="1.0" encoding="UTF-8"?>
<svg width="135px" height="34px" viewBox="0 0 135 34" version="1.1" xmlns="http://www.w3.org/2000/svg" xmlns:xlink="http://www.w3.org/1999/xlink">
    <!-- Generator: Sketch 50.2 (55047) - http://www.bohemiancoding.com/sketch -->
    <title>Logo</title>
    <desc>Created with Sketch.</desc>
    <defs>
        <polygon id="path-1" points="0 0 33.8345865 0 33.8345865 33.8345865 0 33.8345865"></polygon>
    </defs>
    <g id="Symbols" stroke="none" stroke-width="1" fill="none" fill-rule="evenodd">
        <g id="Footer-2" transform="translate(-109.000000, -100.000000)">
            <g id="Footer">
                <g id="Logo" transform="translate(109.000000, 100.000000)">
                    <g id="Group-Copy" transform="translate(0.000000, 0.045113)">
                        <mask id="mask-2" fill="white">
                            <use xlink:href="#path-1"></use>
                        </mask>
                        <g id="Clip-2"></g>
                        <path d="M20.4505919,17.506016 C18.839099,17.506016 17.5050497,18.839582 17.5060164,20.4501081 C17.5074665,22.061601 18.8091312,23.3115471 20.3882396,23.2806126 C21.968798,23.2491948 23.250162,21.9678308 23.2806131,20.3877558 C23.3129977,18.8096142 22.0611181,17.5055327 20.4505919,17.506016 M13.3844808,17.506016 C11.7739546,17.5055327 10.5230417,18.8100975 10.5539762,20.3877558 C10.5868441,21.9678308 11.866758,23.2491948 13.4468331,23.2806126 C15.0244914,23.3115471 16.3295396,22.061601 16.3290563,20.4501081 C16.3285729,18.839582 14.9945236,17.506016 13.3844808,17.506016 M20.3882396,10.553976 C18.8096146,10.5230415 17.5060164,11.7725043 17.5060164,13.3844805 C17.5064998,14.9950066 18.8410324,16.3285726 20.4505919,16.3280892 C22.0611181,16.3285726 23.3115476,15.0244911 23.2806131,13.4463495 C23.250162,11.8662744 21.9673479,10.5849104 20.3882396,10.553976 M24.3841039,13.4710004 C24.4082715,14.7320636 25.4015582,15.7765855 26.5427504,15.7848025 C27.6824925,15.7930195 28.5177233,14.8142333 28.4867889,13.6116556 C28.4548877,12.4081111 27.5669715,11.3858234 26.4320629,11.3205709 C25.3005378,11.2558019 24.3575196,12.2099371 24.3841039,13.4710004 M24.3841039,20.3631049 C24.3575196,21.6241681 25.3024712,22.5787867 26.4320629,22.5135343 C27.5669715,22.4487653 28.453921,21.4264775 28.4867889,20.2224497 C28.51724,19.019872 27.6834592,18.0410858 26.5427504,18.0497861 C25.4025249,18.0580031 24.4087548,19.1020417 24.3841039,20.3631049 M5.34876719,13.6116556 C5.31831606,14.8142333 6.15209687,15.7930195 7.29232234,15.7848025 C8.43013105,15.7765855 9.42873462,14.7320636 9.45096877,13.4710004 C9.47851979,12.2099371 8.53501826,11.2558019 7.40349311,11.3205709 C6.26906786,11.38534 5.38018502,12.4081111 5.34876719,13.6116556 M5.34876719,20.2224497 C5.38066837,21.4264775 6.26955121,22.4487653 7.40349311,22.5135343 C8.53646831,22.5787867 9.47610303,21.6246515 9.45096877,20.3631049 C9.42825127,19.1020417 8.4296477,18.0575197 7.29232234,18.0497861 C6.15161352,18.0410858 5.31734936,19.019872 5.34876719,20.2224497 M20.3635887,24.38362 C19.1025254,24.4077876 18.0584868,25.403491 18.0497865,26.5422664 C18.0425362,27.6820085 19.019389,28.5177227 20.2229335,28.4863049 C21.4274447,28.4544037 22.4482824,27.5655209 22.5145015,26.431579 C22.5783039,25.3000539 21.6251353,24.3575191 20.3635887,24.38362 M13.4719674,24.38362 C12.2099374,24.3575191 11.2558021,25.3000539 11.3205712,26.431579 C11.3882404,27.5655209 12.406178,28.4544037 13.6121392,28.4863049 C14.8156837,28.5177227 15.7935031,27.6820085 15.7852862,26.5422664 C15.7790026,25.403491 14.7330306,24.4077876 13.4719674,24.38362 M29.4143398,20.1770147 C29.3906556,21.0745978 29.9779273,21.7445226 30.6681528,21.6768534 C31.3627285,21.6091842 31.8779808,20.8643401 31.8944148,20.0155754 C31.9093987,19.1677774 31.4260475,18.4939859 30.7425889,18.5123532 C30.0605803,18.5312039 29.4370573,19.2789482 29.4143398,20.1770147 M29.4143398,13.6570906 C29.4351239,14.5551571 30.0610637,15.3033847 30.7425889,15.321752 C31.4279809,15.3406027 31.908432,14.6663278 31.8944148,13.8185299 C31.8784642,12.9702485 31.3607951,12.2254044 30.6681528,12.1572518 C29.9769606,12.0895827 29.3901722,12.7595074 29.4143398,13.6570906 M1.94065792,20.0155754 C1.9556418,20.8643401 2.47524434,21.6091842 3.1669199,21.6768534 C3.85907881,21.7445226 4.4444171,21.0750812 4.42121625,20.1770147 C4.39753204,19.2789482 3.77545905,18.5312039 3.09248381,18.5123532 C2.40757517,18.4939859 1.92857414,19.1677774 1.94065792,20.0155754 M24.6620309,26.3208916 C24.6020953,27.1667562 25.2522027,27.7704618 26.0855001,27.703276 C26.920731,27.6360902 27.6365741,26.9221805 27.7037599,26.0854996 C27.7714291,25.2507521 27.1662734,24.6035448 26.3213755,24.661547 C25.4755109,24.7180991 24.7185829,25.4745437 24.6620309,26.3208916 M6.13131277,26.0854996 C6.19849859,26.9221805 6.913375,27.6360902 7.74957257,27.703276 C8.58383673,27.7704618 9.23104398,27.1667562 9.17352519,26.3208916 C9.11503969,25.4745437 8.36197853,24.7180991 7.51369719,24.661547 C6.66928265,24.6035448 6.0617102,25.2502687 6.13131277,26.0854996 M24.6620309,7.51369702 C24.7180996,8.35956159 25.4755109,9.11648954 26.3213755,9.17304163 C27.1672401,9.23056042 27.7714291,8.58383654 27.7037599,7.74860569 C27.6365741,6.91240814 26.9212143,6.19849845 26.0855001,6.13082928 C25.2531694,6.06364347 24.6035454,6.66734909 24.6620309,7.51369702 M6.13131277,7.74860569 C6.06412695,8.58383654 6.66831595,9.23056042 7.51369719,9.17304163 C8.36101183,9.11648954 9.11648975,8.35956159 9.17352519,7.51369702 C9.23152733,6.66734909 8.58432008,6.06364347 7.74957257,6.13082928 C6.91385835,6.19849845 6.19753188,6.91240814 6.13131277,7.74860569 M32.6063911,19.9537064 C32.5986575,20.5134271 32.9012353,20.9266924 33.2458647,20.8754572 C33.5929109,20.8242219 33.8345865,20.3486044 33.8345865,19.8174014 C33.8331364,19.2857151 33.597261,18.87535 33.2613319,18.8980675 C32.9254029,18.9217517 32.6141247,19.3939858 32.6063911,19.9537064 M12.9591317,33.2453807 C13.0089169,33.5914601 13.4864679,33.8350691 14.0171875,33.8345857 C14.5479071,33.8331357 14.9597223,33.5977437 14.9365215,33.2608479 C14.9147707,32.9254022 14.4410865,32.614124 13.8808825,32.6063904 C13.3206784,32.5972067 12.9078965,32.9007513 12.9591317,33.2453807 M18.8985512,33.2608479 C18.8758337,33.5977437 19.2876489,33.8331357 19.8174018,33.8345857 C20.3486048,33.8350691 20.8261558,33.5914601 20.8759409,33.2453807 C20.9271762,32.9007513 20.5143943,32.5972067 19.9541902,32.6063904 C19.3954362,32.614124 18.9232021,32.9254022 18.8985512,33.2608479 M12.9591317,0.588724603 C12.9083799,0.933353998 13.3211618,1.23738189 13.8808825,1.22819822 C14.4391531,1.2204646 14.9133206,0.908703087 14.9365215,0.573257366 C14.9602057,0.236844941 14.5488738,0.000969563537 14.0171875,2.86116866e-06 C13.4869512,-0.0009638412 13.0089169,0.243128507 12.9591317,0.588724603 M18.8985512,0.573257366 C18.9207854,0.908703087 19.3935028,1.2204646 19.9541902,1.22819822 C20.5124609,1.23738189 20.9276595,0.933353998 20.8759409,0.588724603 C20.8251891,0.243128507 20.3500549,-0.000480490015 19.8174018,2.86116889e-06 C19.2857155,0.000969563537 18.874867,0.236844941 18.8985512,0.573257366 M32.6063911,13.8808822 C32.6160581,14.4401195 32.9254029,14.9128369 33.2613319,14.9360378 C33.5987111,14.9592387 33.8326531,14.5483902 33.8345865,14.0171872 C33.8336198,13.4855009 33.5929109,13.0098833 33.2458647,12.9586481 C32.9002686,12.9078962 32.5986575,13.3211615 32.6063911,13.8808822 M2.87248256e-06,19.8174014 C-0.000963829906,20.3486044 0.242161821,20.8242219 0.589207978,20.8754572 C0.935287433,20.9266924 1.23641523,20.5134271 1.22819826,19.9537064 C1.22336474,19.3939858 0.907736415,18.9217517 0.57374074,18.8980675 C0.236844958,18.87535 0.00241962845,19.2857151 2.87248256e-06,19.8174014 M2.8724828e-06,14.0171872 C0.00338633084,14.5483902 0.236844958,14.9592387 0.57374074,14.9360378 C0.908703118,14.9128369 1.22239804,14.4401195 1.22819826,13.8808822 C1.23834863,13.3211615 0.934320731,12.9078962 0.589207978,12.9586481 C0.243128523,13.0098833 0.000486223677,13.4855009 2.8724828e-06,14.0171872 M29.574329,25.8824921 C29.5313108,26.4354458 29.899141,26.8226101 30.3786254,26.7539743 C30.8581098,26.6853384 31.2559078,26.1889367 31.2892591,25.6427499 C31.322127,25.0970464 30.9881313,24.7026318 30.5192806,24.7645008 C30.05043,24.8258864 29.6158972,25.3295383 29.574329,25.8824921 M2.54581361,25.6427499 C2.57771479,26.1889367 2.97599618,26.6853384 3.45693061,26.7539743 C3.936415,26.8226101 4.30424526,26.4354458 4.26074365,25.8824921 C4.2186921,25.3295383 3.78319267,24.8258864 3.31627542,24.7645008 C2.84645806,24.7026318 2.51439578,25.0970464 2.54581361,25.6427499 M29.574329,7.95161319 C29.6163806,8.5050503 30.0499466,9.00870223 30.5192806,9.07008783 C30.9876479,9.13147343 31.3211603,8.73754222 31.2892591,8.19135538 C31.2554245,7.64516854 30.8576265,7.14876687 30.3786254,7.08061436 C29.9015578,7.01197849 29.5293774,7.39865944 29.574329,7.95161319 M24.7649847,30.5187966 C24.702149,30.9881306 25.0980136,31.3211596 25.6427504,31.2887751 C26.1884539,31.2559072 26.6848556,30.8581092 26.7544582,30.3781414 C26.8235774,29.8991404 26.4364131,29.5308268 25.882976,29.5743284 C25.3305056,29.6168633 24.8263703,30.049946 24.7649847,30.5187966 M7.08061452,30.3781414 C7.14925039,30.8581092 7.64758547,31.2559072 8.19232226,31.2887751 C8.73802576,31.3211596 9.13099028,30.9881306 9.07057138,30.5187966 C9.00870243,30.049946 8.50505049,29.6168633 7.95258007,29.5743284 C7.3996263,29.5308268 7.0114953,29.8991404 7.08061452,30.3781414 M24.7649847,3.31579198 C24.8263703,3.78464263 25.3295389,4.21772529 25.882976,4.2602602 C26.4344797,4.30327845 26.823094,3.93496485 26.7544582,3.45644718 C26.6858223,2.97647945 26.1884539,2.57819808 25.6427504,2.54581355 C25.0975303,2.51342902 24.702149,2.84645798 24.7649847,3.31579198 M7.08061452,3.45644718 C7.0114953,3.93496485 7.40010966,4.30327845 7.95258007,4.2602602 C8.50456713,4.21772529 9.00966913,3.78415928 9.07057138,3.31579198 C9.13292369,2.84645798 8.73705906,2.51342902 8.19232226,2.54581355 C7.64565206,2.57819808 7.14925039,2.97647945 7.08061452,3.45644718 M2.54581361,8.19135538 C2.51342908,8.73754222 2.84694141,9.13147343 3.31627542,9.07008783 C3.78512607,9.00870223 4.21724204,8.5050503 4.26074365,7.95161319 C4.30376191,7.39865944 3.93448159,7.01197849 3.45693061,7.08061436 C2.97647953,7.14876687 2.57771479,7.64565189 2.54581361,8.19135538 M1.94065792,13.8185299 C1.92519068,14.6663278 2.40709182,15.3406027 3.09248381,15.321752 C3.7749757,15.3033847 4.39898209,14.5551571 4.42121625,13.6570906 C4.44683386,12.7595074 3.85762875,12.0895827 3.1669199,12.1572518 C2.47524434,12.2254044 1.95660851,12.9702485 1.94065792,13.8185299 M13.6575742,29.4138558 C12.759991,29.3892049 12.0890996,29.9769599 12.1582188,30.6676688 C12.2254046,31.3612777 12.9707322,31.8784635 13.8190135,31.8939307 C14.6668115,31.9084313 15.3415698,31.4270135 15.3227191,30.7421049 C15.3038684,30.0591296 14.5570908,29.4356066 13.6575742,29.4138558 M20.1779818,29.4138558 C19.2803987,29.4356066 18.5326544,30.0591296 18.5123536,30.7421049 C18.4930196,31.4270135 19.1697112,31.9084313 20.0165425,31.8939307 C20.8648239,31.8784635 21.6077347,31.3612777 21.6773372,30.6676688 C21.7459731,29.9769599 21.0745983,29.3892049 20.1779818,29.4138558 M13.8190135,1.94017451 C12.9692821,1.95564175 12.2268547,2.47331087 12.1582188,3.16643647 C12.0905496,3.85762866 12.758541,4.4453837 13.6575742,4.42073279 C14.5561241,4.39849864 15.3038684,3.77497561 15.3227191,3.09200039 C15.3415698,2.40757511 14.6648781,1.92567398 13.8190135,1.94017451 M20.0165425,1.94017451 C19.1687445,1.92567398 18.4920529,2.40757511 18.5123536,3.09200039 C18.5302376,3.77497561 19.279432,4.39849864 20.1779818,4.42073279 C21.0741149,4.4453837 21.7450064,3.85762866 21.6773372,3.16643647 C21.6096681,2.47331087 20.8638572,1.95564175 20.0165425,1.94017451 M20.2229335,5.34828371 C19.0203557,5.31686589 18.0425362,6.15209673 18.0497865,7.29232218 C18.0584868,8.43061421 19.1020421,9.42631765 20.3635887,9.45048521 C21.6251353,9.47706953 22.5783039,8.53405137 22.5145015,7.4030096 C22.4492491,6.26858437 21.4255113,5.37970154 20.2229335,5.34828371 M13.6121392,5.34828371 C12.4090781,5.37970154 11.3848569,6.26858437 11.3205712,7.4030096 C11.2567688,8.53405137 12.2104207,9.47706953 13.4719674,9.45048521 C14.7315806,9.42631765 15.7775526,8.43061421 15.7852862,7.29232218 C15.7925364,6.15209673 14.8137503,5.31686589 13.6121392,5.34828371 M16.3290563,13.3844805 C16.3285729,14.9950066 14.9945236,16.3285726 13.3844808,16.3280892 C11.7739546,16.3285726 10.5230417,15.0244911 10.5539762,13.4463495 C10.5868441,11.8662744 11.866758,10.5849104 13.4468331,10.553976 C15.0244914,10.5230415 16.3295396,11.7725043 16.3290563,13.3844805" id="Fill-1" fill="#004AFF" mask="url(#mask-2)"></path>
                    </g>
                    <path d="M53.554782,13.3064962 L50.418782,13.3064962 L50.418782,21.3984962 L48.472782,21.3984962 L48.472782,13.3064962 L45.336782,13.3064962 L45.336782,11.4724962 L53.554782,11.4724962 L53.554782,13.3064962 Z M63.128782,21.3984962 L56.912782,21.3984962 L56.912782,11.4724962 L63.128782,11.4724962 L63.128782,13.2924962 L58.844782,13.2924962 L58.844782,15.5604962 L62.722782,15.5604962 L62.722782,17.2824962 L58.844782,17.2824962 L58.844782,19.5784962 L63.128782,19.5784962 L63.128782,21.3984962 Z M71.526782,21.6084962 C68.754782,21.6084962 66.444782,19.6064962 66.444782,16.4424962 C66.444782,13.2784962 68.838782,11.2624962 71.498782,11.2624962 C74.242782,11.2624962 75.656782,12.9424962 76.048782,14.5524962 L74.228782,15.1264962 C73.990782,14.1744962 73.220782,13.1244962 71.498782,13.1244962 C70.014782,13.1244962 68.446782,14.1884962 68.446782,16.4424962 C68.446782,18.5564962 69.930782,19.7184962 71.526782,19.7184962 C73.220782,19.7184962 74.046782,18.6124962 74.312782,17.6884962 L76.118782,18.2344962 C75.740782,19.7604962 74.312782,21.6084962 71.526782,21.6084962 Z M87.932782,21.3984962 L85.986782,21.3984962 L85.986782,17.2824962 L81.660782,17.2824962 L81.660782,21.3984962 L79.728782,21.3984962 L79.728782,11.4724962 L81.660782,11.4724962 L81.660782,15.4624962 L85.986782,15.4624962 L85.986782,11.4724962 L87.932782,11.4724962 L87.932782,21.3984962 Z M101.188782,21.3984962 L99.620782,21.3984962 L99.494782,20.2644962 C99.046782,20.9364962 98.066782,21.6084962 96.568782,21.6084962 C93.894782,21.6084962 91.612782,19.6484962 91.612782,16.4424962 C91.612782,13.2364962 94.006782,11.2624962 96.694782,11.2624962 C99.298782,11.2624962 100.740782,12.7884962 101.230782,14.3144962 L99.382782,14.9724962 C99.130782,14.0904962 98.304782,13.0684962 96.694782,13.0684962 C95.196782,13.0684962 93.572782,14.0904962 93.572782,16.4424962 C93.572782,18.6824962 95.042782,19.8444962 96.708782,19.8444962 C98.542782,19.8444962 99.256782,18.6124962 99.368782,17.9124962 L96.232782,17.9124962 L96.232782,16.2324962 L101.188782,16.2324962 L101.188782,21.3984962 Z M111.868782,21.3984962 L111.042782,19.1304962 L107.010782,19.1304962 L106.184782,21.3984962 L104.140782,21.3984962 L107.948782,11.4724962 L110.188782,11.4724962 L113.968782,21.3984962 L111.868782,21.3984962 Z M109.026782,13.6144962 L107.654782,17.3664962 L110.398782,17.3664962 L109.026782,13.6144962 Z M128.316782,21.3984962 L126.412782,21.3984962 L126.412782,14.4404962 L123.556782,21.3984962 L121.946782,21.3984962 L119.090782,14.4964962 L119.090782,21.3984962 L117.242782,21.3984962 L117.242782,11.4724962 L119.790782,11.4724962 L122.772782,18.6404962 L125.684782,11.4724962 L128.316782,11.4724962 L128.316782,21.3984962 Z M134.544782,21.3984962 L132.584782,21.3984962 L132.584782,11.4724962 L134.544782,11.4724962 L134.544782,21.3984962 Z" id="TECHGAMI" fill="#FFFFFF"></path>
                </g>
            </g>
        </g>
    </g>
</svg>