<?xml version="1.0" standalone="no"?>
<!DOCTYPE svg PUBLIC "-//W3C//DTD SVG 20010904//EN"
 "http://www.w3.org/TR/2001/REC-SVG-20010904/DTD/svg10.dtd">
<svg version="1.0" xmlns="http://www.w3.org/2000/svg"
 width="300.000000pt" height="300.000000pt" viewBox="0 0 300.000000 300.000000"
 preserveAspectRatio="xMidYMid meet">
<metadata>
Created by potrace 1.11, written by Peter Selinger 2001-2013
</metadata>
<g transform="translate(0.000000,300.000000) scale(0.100000,-0.100000)"
fill="#000000" stroke="none">
<path d="M1183 2990 c-12 -5 -27 -19 -34 -31 -10 -20 -8 -26 15 -46 30 -25 57
-29 105 -12 35 12 54 39 45 64 -12 31 -83 44 -131 25z"/>
<path d="M1693 2985 c-50 -36 -6 -90 74 -90 52 0 78 22 69 58 -7 28 -24 38
-81 44 -27 3 -48 -1 -62 -12z"/>
<path d="M1165 2820 c-103 -32 -122 -150 -31 -194 116 -55 266 58 200 152 -8
12 -24 27 -35 33 -28 15 -99 20 -134 9z"/>
<path d="M1715 2822 c-73 -24 -100 -86 -62 -142 42 -63 120 -86 191 -56 62 26
85 94 50 145 -32 45 -121 71 -179 53z"/>
<path d="M682 2763 c-101 -49 -55 -167 51 -131 33 12 67 53 67 83 0 47 -65 74
-118 48z"/>
<path d="M2222 2769 c-28 -11 -42 -46 -30 -79 26 -71 148 -88 165 -23 15 64
-68 127 -135 102z"/>
<path d="M1153 2521 c-95 -24 -162 -114 -150 -202 16 -123 155 -187 274 -127
63 31 104 84 110 142 7 58 -1 87 -33 126 -47 55 -126 79 -201 61z"/>
<path d="M1720 2518 c-50 -14 -85 -42 -108 -88 -38 -77 -11 -168 67 -224 39
-28 50 -31 120 -31 70 0 81 3 115 29 92 70 94 196 4 271 -55 47 -126 62 -198
43z"/>
<path d="M652 2453 c-36 -7 -100 -77 -108 -117 -19 -105 74 -176 172 -130 73
35 113 129 80 192 -26 51 -73 68 -144 55z"/>
<path d="M2241 2447 c-71 -36 -85 -129 -29 -193 93 -106 232 -72 230 57 -2 99
-119 179 -201 136z"/>
<path d="M284 2365 c-55 -24 -77 -96 -43 -139 35 -45 98 -26 125 39 30 72 -16
128 -82 100z"/>
<path d="M2635 2358 c-68 -53 18 -189 94 -149 59 32 26 146 -46 164 -14 3 -32
-2 -48 -15z"/>
<path d="M1121 2058 c-106 -30 -191 -143 -191 -253 0 -81 64 -181 142 -221 50
-26 140 -30 194 -9 63 24 122 79 150 139 33 70 29 164 -9 229 -59 99 -176 147
-286 115z"/>
<path d="M1729 2061 c-110 -36 -182 -131 -182 -241 -1 -149 133 -272 279 -257
255 26 312 359 82 478 -43 22 -140 33 -179 20z"/>
<path d="M595 1986 c-123 -55 -162 -228 -72 -324 37 -40 75 -55 131 -50 139
12 220 167 155 296 -40 77 -136 112 -214 78z"/>
<path d="M2260 1989 c-135 -57 -142 -267 -12 -350 120 -76 262 6 262 151 0
111 -75 201 -172 207 -29 1 -64 -2 -78 -8z"/>
<path d="M265 1922 c-57 -19 -87 -64 -91 -135 -6 -141 126 -189 194 -69 39 70
20 167 -39 197 -30 16 -34 16 -64 7z"/>
<path d="M2665 1920 c-63 -25 -88 -126 -50 -199 45 -87 143 -94 184 -13 17 33
15 114 -3 151 -27 51 -86 79 -131 61z"/>
<path d="M33 1845 c-28 -20 -38 -73 -24 -118 20 -59 69 -57 90 4 16 47 14 73
-10 103 -24 30 -27 31 -56 11z"/>
<path d="M2899 1839 c-19 -19 -23 -34 -19 -79 3 -34 16 -57 41 -71 48 -25 79
58 49 135 -12 32 -47 39 -71 15z"/>
<path d="M1145 1452 c-82 -15 -150 -64 -188 -136 -29 -55 -29 -154 -1 -216 58
-126 213 -188 334 -133 53 24 81 49 118 106 23 36 27 53 27 117 0 86 -16 128
-73 186 -56 57 -146 89 -217 76z"/>
<path d="M1748 1448 c-43 -9 -103 -44 -135 -79 -146 -161 -33 -421 182 -421
141 -1 259 120 257 262 0 30 -7 69 -14 86 -48 113 -171 178 -290 152z"/>
<path d="M587 1396 c-21 -8 -47 -22 -57 -31 -46 -42 -69 -141 -48 -209 14 -44
61 -102 99 -122 37 -18 106 -24 139 -10 161 65 142 316 -29 374 -42 15 -56 15
-104 -2z"/>
<path d="M2284 1394 c-121 -42 -170 -209 -92 -315 75 -102 238 -77 298 45 53
110 4 243 -100 274 -43 13 -59 12 -106 -4z"/>
<path d="M232 1357 c-27 -12 -62 -75 -62 -109 0 -82 54 -158 112 -158 69 0
114 61 105 142 -12 95 -88 157 -155 125z"/>
<path d="M2677 1355 c-106 -55 -108 -233 -3 -259 90 -23 159 77 132 190 -14
62 -78 96 -129 69z"/>
<path d="M16 1308 c-19 -26 -20 -65 -5 -105 19 -52 61 -58 84 -13 20 39 19 68
-5 108 -23 38 -52 42 -74 10z"/>
<path d="M2906 1317 c-26 -19 -33 -99 -12 -132 35 -53 86 -15 86 63 0 74 -30
101 -74 69z"/>
<path d="M1104 831 c-181 -83 -105 -341 101 -341 63 0 125 28 155 70 31 44 38
125 15 170 -20 39 -70 88 -105 102 -44 19 -123 18 -166 -1z"/>
<path d="M1750 843 c-139 -43 -200 -185 -122 -282 44 -55 85 -73 162 -69 107
5 182 71 194 171 8 66 -39 143 -104 169 -28 11 -107 18 -130 11z"/>
<path d="M614 815 c-50 -21 -68 -51 -68 -108 0 -106 101 -178 196 -140 60 24
84 106 50 169 -34 64 -122 103 -178 79z"/>
<path d="M2298 819 c-70 -19 -119 -80 -120 -150 -1 -71 41 -111 118 -111 119
0 196 162 114 237 -24 22 -78 34 -112 24z"/>
<path d="M250 802 c-43 -35 -22 -128 35 -154 49 -22 87 6 90 67 2 32 -26 73
-61 90 -40 19 -37 19 -64 -3z"/>
<path d="M2668 804 c-54 -29 -75 -107 -38 -144 35 -35 88 -22 115 30 23 45 19
85 -11 109 -31 25 -31 25 -66 5z"/>
<path d="M1153 396 c-139 -47 -80 -212 74 -208 72 1 123 42 123 97 0 80 -109
141 -197 111z"/>
<path d="M1757 402 c-45 -6 -88 -34 -109 -72 -39 -73 11 -135 117 -145 29 -3
84 21 113 48 51 49 43 121 -17 151 -34 18 -65 23 -104 18z"/>
<path d="M642 365 c-37 -46 1 -110 71 -122 48 -7 87 17 87 55 -1 75 -114 123
-158 67z"/>
<path d="M2238 374 c-40 -21 -61 -66 -46 -98 21 -48 118 -43 153 8 49 70 -27
134 -107 90z"/>
<path d="M1183 115 c-39 -17 -48 -50 -20 -75 20 -19 45 -24 97 -20 24 2 60 26
60 40 0 4 -8 18 -17 29 -24 30 -82 42 -120 26z"/>
<path d="M1698 105 c-34 -19 -38 -59 -7 -75 30 -17 96 -14 124 4 26 17 31 40
16 65 -13 21 -100 24 -133 6z"/>
</g>
</svg>
